<?xml version="1.0" encoding="UTF-8" standalone="no"?>
<!-- Creator: CorelDRAW -->

<svg
   xmlns:dc="http://purl.org/dc/elements/1.1/"
   xmlns:cc="http://creativecommons.org/ns#"
   xmlns:rdf="http://www.w3.org/1999/02/22-rdf-syntax-ns#"
   xmlns:svg="http://www.w3.org/2000/svg"
   xmlns="http://www.w3.org/2000/svg"
   xmlns:sodipodi="http://sodipodi.sourceforge.net/DTD/sodipodi-0.dtd"
   xmlns:inkscape="http://www.inkscape.org/namespaces/inkscape"
   xml:space="preserve"
   width="984"
   height="660"
   style="fill-rule:evenodd"
   viewBox="0 0 277.70667 186.26667"
   id="svg2"
   version="1.1"
   inkscape:version="0.48.3.1 r9886"
   sodipodi:docname="australien.svg"><metadata
   id="metadata91"><rdf:RDF><cc:Work
       rdf:about=""><dc:format>image/svg+xml</dc:format><dc:type
         rdf:resource="http://purl.org/dc/dcmitype/StillImage" /></cc:Work></rdf:RDF></metadata><sodipodi:namedview
   pagecolor="#ffffff"
   bordercolor="#666666"
   borderopacity="1"
   objecttolerance="10"
   gridtolerance="10"
   guidetolerance="10"
   inkscape:pageopacity="0"
   inkscape:pageshadow="2"
   inkscape:window-width="1920"
   inkscape:window-height="1031"
   id="namedview89"
   showgrid="false"
   inkscape:zoom="1.2686561"
   inkscape:cx="431.31085"
   inkscape:cy="363.14072"
   inkscape:window-x="-2"
   inkscape:window-y="-1"
   inkscape:window-maximized="1"
   inkscape:current-layer="svg2" />
 <defs
   id="defs4">
  <style
   type="text/css"
   id="style6">
   
    .str3 {stroke:#2F3133;stroke-width:0.1}
    .str2 {stroke:black;stroke-width:0.1;stroke-opacity:0.501961}
    .str0 {stroke:black;stroke-width:0.1}
    .str1 {stroke:#003399;stroke-width:0.2}
    .str4 {stroke:black;stroke-width:0.5}
    .fil5 {fill:none}
    .fil0 {fill:#75C5F0}
    .fil2 {fill:#CBE3FF}
    .fil1 {fill:lemonchiffon}
    .fil3 {fill:#D3E9C7}
    .fil4 {fill:#EEE0E6}
    .fil10 {fill:#1F1A17;fill-rule:nonzero}
    .fil8 {fill:#C2C1C1;fill-rule:nonzero}
    .fil9 {fill:white;fill-rule:nonzero}
    .fil7 {fill:black;fill-rule:nonzero}
    .fil6 {fill:white;fill-rule:nonzero;fill-opacity:0.501961}
   
  </style>
 </defs>
 <g
   id="Plan_x0020_1"
   transform="translate(-9.646665,-9.7271615)">
  <metadata
   id="CorelCorpID_0Corel-Layer" />
  <rect
   class="fil0"
   x="10"
   y="10"
   width="277"
   height="185.72099"
   id="rect10"
   style="fill:#75c5f0" />
  <path
   class="fil1 str0"
   d="m 125.65,49.6784 c -0.0154,0.0036 -0.0308,0.0072 -0.0465,0.0094 -0.1643,-0.2492 -2.3655,0.3441 -1.7226,-0.4852 l 0.8752,-1.129 c 0.3029,-0.3907 1.2522,-0.0863 1.7412,-0.1866 0.2701,-0.0553 0.5918,-0.0932 0.8287,-0.224 0.4268,-0.2358 0.4037,-0.0571 0.7356,0.2519 0.2276,0.2118 0.3483,0.2376 0.0838,0.5226 l -0.4935,0.5318 c -0.2287,0.2464 -0.1572,0.4875 -0.5214,0.6812 -0.2946,0.1566 -0.7201,0.1552 -1.0429,0.0746 L 125.65,49.6784 z m 60.2993,94.781 c 0.3674,0.0863 0.8678,0.0882 1.2198,-0.0466 0.2447,-0.0936 0.3714,-0.2592 0.5866,-0.3919 0.3737,-0.2306 1.0304,-0.4397 1.2291,-0.8398 0.1241,-0.2497 0.0126,-0.7431 -0.0279,-1.017 -0.0336,-0.2276 -0.1544,-0.4202 -0.1676,-0.6532 0,-0.3057 -0.1665,-0.5356 -0.1211,-0.8771 0.0433,-0.3264 0.0987,-0.5366 0.2142,-0.8397 0.1698,-0.4459 0.5959,-1.1825 0.5959,-1.6329 0,-0.3225 -0.0838,-0.6317 -0.0838,-0.9517 0,-0.4423 0.1231,-0.674 0.3166,-1.0637 0.2414,-0.4864 0.7115,-1.1612 0.8287,-1.6795 0.2904,-0.4584 0.3533,-0.532 0.7542,-0.9051 0.4091,-0.3809 0.27,-0.4185 0.27,-0.9331 0,-0.7542 0.2351,-1.981 0.6425,-2.6126 0.2896,-0.4488 0.86,-0.8291 0.8845,-1.4089 0.0238,-0.5619 0.2555,-1.4455 0.6797,-1.8381 0.4679,-0.601 0.5165,-1.5179 1.1267,-2.0435 0.467,-0.4024 1.2663,-0.0651 1.2663,-0.9517 0,-0.4234 0.6627,-0.3459 0.9591,-0.5692 0.3697,-0.2787 0.224,-1.4146 0.2048,-1.8474 -0.0148,-0.335 1.0485,-1.4205 1.2105,-1.9408 0.1428,-0.573 0.7311,-2.0858 0.2607,-2.5939 -0.374,-0.4039 0.4004,-2.4505 0.5959,-2.9299 0.2404,-0.5892 0.3548,-1.2142 0.5121,-1.8288 0.1755,-0.3953 0.0845,-1.1634 0.2328,-1.6515 0.1195,-0.3935 0.5403,-0.7542 0.5959,-1.0917 0.1273,-0.7731 -0.0745,-1.8123 -0.0745,-2.6406 -0.0139,-0.0111 -0.0212,-0.0145 -0.0279,-0.028 -0.4143,-0.1024 -0.568,-0.1371 -0.568,-0.6718 0,-0.4069 0.1275,-1.1113 0.298,-1.4742 0.1479,-0.2967 -0.1012,-1.7276 -0.1862,-2.0714 -0.024,-0.003 -0.0222,0.005 -0.028,-0.0187 -1.1357,0 -0.8093,-0.4009 -0.9218,-1.3156 -0.0994,-0.8074 -0.149,-1.4982 -0.149,-2.3234 0,-0.4512 0.1599,-0.9734 0.1211,-1.3902 0.2524,-0.4706 0.3027,-1.1213 0.5773,-1.6422 0.2003,-0.3798 -0.1137,-1.0099 -0.1304,-1.4463 -0.005,-0.1316 -0.0728,-0.9573 -0.1862,-0.9704 -0.2016,-0.0233 -0.25,0.8992 -0.2607,1.0544 -0.0339,0.4933 -0.0756,1.086 -0.4842,1.3903 -0.7674,0.5713 -1.5541,-0.8102 -1.8064,-1.325 -0.1948,-0.3976 -0.699,-0.6626 -0.987,-0.989 -0.4513,-0.5114 -0.7898,-1.1447 -1.229,-1.6516 -0.4929,-0.569 -1.0356,-0.4273 -1.434,-1.2503 -0.1558,-0.2612 -0.3112,-0.6723 -0.5586,-0.8584 -0.4009,-0.3014 -0.6029,0.0254 -0.9032,-0.5785 -0.3804,-0.7653 -0.2312,-2.0302 -0.5308,-2.9205 -0.2103,-0.6248 -0.5097,-0.5785 -1.0987,-0.5785 -0.8912,0 -1.2623,-0.3196 -1.7877,-1.0264 -0.022,0.0055 -0.0203,0.015 -0.0466,0.0187 -0.095,0.19 -0.3592,0.8767 -0.5866,0.8584 -0.2393,-0.0192 -0.4945,-1.0649 -0.4842,-1.2783 0.1181,-0.4737 -0.0286,-1.5585 -0.4376,-1.8661 -0.468,-0.3518 -0.5285,-1.4003 -0.9311,-1.5396 -0.4228,-0.1464 -0.6917,-0.4083 -0.8473,-0.8398 -0.2075,-0.5756 -0.4954,-1.0818 -0.6798,-1.6795 -0.2081,-0.6748 -0.8368,-0.7875 -1.4898,-0.9424 -0.8258,-0.0743 -1.7444,-0.8458 -2.0764,-1.5675 -0.4095,-0.8899 -0.9483,-0.4401 -1.7784,-0.7278 -0.4598,-0.1594 -0.9023,-0.5897 -1.3222,-0.8491 -0.7215,-0.4456 -0.7821,-0.9884 -0.7821,-1.7822 0,-0.4099 -0.2312,-0.7712 -0.3445,-1.1476 0,-1.5995 -0.7166,-2.8112 -1.3688,-4.2268 -0.2091,-0.4537 -0.6645,-0.7042 -0.8939,-1.157 -0.2097,-0.4142 -0.051,-1.1925 -0.1303,-1.6702 0,-0.9587 -0.3817,-1.4249 -0.6518,-2.2767 -0.1446,-0.4559 -0.0564,-1.8757 -0.4097,-2.0901 l -0.9218,-0.5598 c -0.5496,-0.3337 -0.7376,-0.9367 -1.3315,-1.2503 -0.2777,-0.0187 -0.6814,-0.2286 -0.9497,-0.1027 -0.2995,0.1404 -0.2218,0.6155 -0.7356,0.4946 -0.7385,-0.1737 -1.0934,-1.1044 -1.1919,-1.7729 -0.2283,-1.5497 -0.2507,-3.591 -0.9311,-4.9546 -0.539,-0.6482 -0.4176,-0.8674 -0.6145,-1.5768 -0.1333,-0.4806 -0.689,0.1482 -0.689,-0.6345 0,-0.3828 -0.0786,-0.7349 -0.1211,-1.1104 -0.0784,-0.6937 -0.4828,-1.0408 -0.7728,-1.6235 -0.4746,-0.9532 -0.4664,-0.7301 -1.136,-0.1866 -0.1402,0.1137 -0.6432,0.5153 -0.6332,0.6904 0.0243,0.4223 -0.044,0.7826 -0.1676,1.185 -0.1624,0.529 -0.453,1.0167 -0.7262,1.5023 -0.1293,0.3892 -0.3973,0.8846 -0.6053,1.241 -0.0881,0.1509 -0.4655,0.7482 -0.4655,0.8864 0.2214,0.0732 0.7697,0.2181 0.6983,0.5411 -0.0941,0.425 -0.6611,0.6203 -0.6611,0.7838 0,0.2262 0.2278,0.6 0.2794,0.8491 0.0879,0.4237 -0.1887,0.6292 -0.3539,0.9704 -0.2283,0.4712 -0.1383,1.0568 -0.1676,1.5676 0,0.2981 0.2828,0.5315 0.2328,0.8117 -0.051,0.2853 -0.1677,0.5479 -0.2234,0.8305 -0.091,0.4617 0.0504,1.3112 0.2793,1.7075 0.3606,0.624 -0.381,2.3742 -0.6704,3.0231 -0.2063,0.6723 -0.0951,1.3923 -0.3445,2.0901 -0.2077,0.5808 -0.4591,1.1918 -0.838,1.6888 -0.5931,0.7782 -0.4123,2.0942 -1.6854,2.2394 -0.8247,0.4597 -1.7863,0.1943 -2.4674,-0.3452 -0.5,-0.3959 -1.1536,-0.8027 -1.5364,-1.3157 -0.2195,-0.294 -0.5176,-0.4617 -0.7542,-0.7184 -0.397,-0.2454 -0.7196,-0.2542 -1.1546,-0.3453 -0.3096,-0.0649 -0.7095,-0.0386 -0.9963,-0.1586 -0.5206,-0.218 -1.4858,-0.5689 -1.6667,-1.185 0,-0.8933 -1.4041,-0.8475 -1.8902,-1.213 -0.6944,-0.5223 -1.3921,-0.2903 -2.0764,-0.7091 -0.3768,-0.2305 -0.7159,-0.6725 -1.0987,-0.9331 -0.5217,-0.355 -0.8915,-0.8689 -1.3594,-1.2876 -0.2641,-0.2267 -0.5512,-0.4375 -0.8566,-0.6252 -0.0927,-0.057 -0.6867,-0.3954 -0.6425,-0.5038 0.1244,-0.3055 0.4708,-0.9197 0.6704,-1.185 0.37,-0.4916 1.4663,-2.0092 1.1546,-2.5846 -0.3925,-0.4491 -0.3688,-0.8906 0.0465,-1.2783 0.3412,-0.3184 1.0619,-0.0547 1.4805,-0.2146 0.2231,-0.0853 0.504,-0.5821 0.6611,-0.7838 0.3318,-0.4263 -0.3569,-0.505 -0.0559,-0.961 0.3196,-0.4844 0.7877,-0.8866 1.2198,-1.2504 0.3394,-0.2859 -0.009,-0.3653 -0.2607,-0.5785 -0.5038,-0.4262 -0.505,-0.119 -0.9963,-0.0839 -0.536,0.0384 -0.3983,-0.7015 -0.5587,-0.9704 -0.1276,0 -0.9683,0.7847 -0.9683,0.8211 0,0.3005 1.1307,0.6179 0.4748,0.8117 -0.2832,0.0836 -0.5711,0.1229 -0.8473,0.084 -0.0692,-0.3507 -0.3459,-0.4703 -0.4749,-0.7744 -0.5193,0.1727 -0.9952,0.2898 -0.5586,-0.4946 0.308,-0.5532 0.3729,-0.6064 -0.3539,-0.3545 -0.8021,0.2781 -1.6253,1.6339 -2.3929,0.5225 -0.5329,-0.7714 -0.5191,-0.4103 -1.3967,-0.2799 -0.906,0.1347 -1.7619,-0.9529 -2.4302,-0.8398 -0.4756,0.0805 -1.1927,0.1083 -1.6202,-0.1399 -0.0984,-0.0989 -0.1781,-0.2438 -0.2607,-0.3546 -0.09,-0.1205 -0.1544,-0.2704 -0.2328,-0.4012 -0.1177,-0.1966 -0.2451,-0.2667 -0.4562,-0.3919 -0.2491,0.1062 -0.5675,0.5848 -0.8194,0.5225 l -0.3538,-0.4945 c -0.1033,-0.1442 -0.1227,-0.5314 -0.2607,-0.6065 -0.1123,-0.0612 -1.7251,0.2012 -1.4526,0.5598 0.1975,0.2601 0.2715,0.4233 0.6145,0.5039 0.3741,0.088 0.79,-0.0412 1.1453,0.0466 0,0.0188 -0.005,0.014 0.009,0.0187 0,0.4049 0.1907,1.2354 0.0838,1.5675 -0.2602,0.8088 -2.3658,0.9345 -3.082,0.9145 -0.4086,-0.0114 -1.6259,-0.3974 -1.9088,-0.2893 -0.5806,0.2217 -0.2853,1.6553 -1.229,0.9144 -0.4295,-0.3371 -0.6174,0.2723 -0.9312,0.4292 -0.2583,0.1864 -0.3077,0.4108 -0.4469,0.6905 -0.1124,0.2256 -1.0563,0.9497 -0.9218,1.017 0.2901,0.1454 0.6251,0.7684 0.4469,1.0917 -0.4235,0.7686 -1.3687,-0.6652 -1.3687,0.8304 0,1.0806 -0.4898,0.9756 -1.2012,1.6329 -0.1892,0.3961 -0.2852,1.0907 -0.8104,1.0907 -0.8828,0 -1.6921,0.7442 -2.4675,1.0543 -0.6005,0.2402 -0.3733,0.2723 -0.6052,-0.2332 -0.2546,-0.5553 -0.8766,-0.9425 -1.3036,-1.3717 -0.3911,-0.393 -0.6038,-0.9249 -0.9311,-1.3623 -0.3771,-0.5037 -0.9923,0.1925 -1.3967,-0.4665 -0.78,-1.2713 -0.8436,0.5312 -1.0988,0.9144 -0.4201,0.9842 -0.6649,0.1318 -0.7914,-0.3826 l -0.9684,0.2333 c -0.6072,0.1462 -0.2681,1.2718 -0.6145,1.7262 -0.5179,0.6796 -0.8983,-0.8211 -1.2478,-0.8211 0,0.539 -0.7104,0.8727 -1.1639,0.9331 -0.7634,0.1016 -0.7375,0.089 -0.3911,0.7838 0.1498,0.3007 0.4941,0.5618 0.568,0.8584 0.0593,0.2377 -0.9349,-0.5169 -1.2942,-0.2332 -0.1515,0.1197 -0.0852,0.3826 -0.2049,0.5318 -0.171,0.2129 -0.3893,0.4222 -0.6238,0.5785 -0.1966,0.1407 -0.4597,0.121 -0.6332,0.2706 -0.1549,0.1334 -0.2247,0.9735 -0.2328,1.1851 -0.0134,0.3515 0.2709,0.4426 0.3445,0.7091 0.0375,0.1356 -0.2162,0.425 -0.2234,0.6065 -0.0102,0.2545 0.1424,0.8634 -0.2235,0.9704 -0.4131,0.1207 -0.7103,-0.4292 -1.1453,-0.4292 -0.2631,-0.0164 -0.6303,0.0193 -0.838,-0.1773 -0.1024,-0.0968 -0.1464,-0.0746 -0.2701,-0.0746 -0.2566,0.0415 -0.5001,-0.007 -0.7449,0.0746 -0.2529,0.0842 0.1556,0.3908 0.2235,0.4759 0.2271,0.285 0.8136,1.9908 0.27,2.0994 -0.2997,0.0599 -0.4091,0.2753 -0.6611,0.4013 -0.4083,0.204 -0.4998,-0.9466 -0.8007,-1.1851 -0.3926,-0.311 -0.3903,-0.2378 -0.419,-0.7651 -0.006,-0.1144 -0.1087,-0.7226 -0.149,-0.6625 l -0.8008,1.1944 c -0.3362,0.5015 -0.9442,0.7677 -1.3129,1.2596 -0.8412,0.5726 -0.6052,1.4178 -0.6052,2.2581 0,0.1636 -0.0223,0.72 0.1024,0.8211 0.9763,0.7922 -0.3064,1.4611 -1.0149,1.7169 -0.4491,0.1622 -1.0176,2.0108 -1.4433,2.4914 -0.266,0.1371 -0.5242,0.6827 -0.8194,0.9051 -0.5693,0.4291 -1.0665,0.9136 -1.7691,1.1477 -0.7851,0.2617 -1.5051,0.4901 -2.3186,0.6811 -0.8756,0.1662 -1.0938,0.4394 -2.0205,0.1306 -0.7449,-0.2483 -0.4952,-0.3842 -1.0708,0.3453 -0.7394,0.9373 -1.2629,0.7816 -2.3651,0.8398 -1.0508,0.0554 -1.3942,1.4765 -2.6351,1.2783 -0.2349,-0.0455 -0.4516,0.0466 -0.6797,-0.028 -0.3716,-0.1217 -0.0887,-0.2008 -0.5308,-0.0653 -0.1437,0.0441 -0.5332,0.1581 -0.6611,0.0373 -0.5533,-0.5223 -0.2843,-0.7556 -0.9404,-0.0653 -0.5475,0.5759 -1.3378,0.8809 -1.9926,1.3436 -0.7496,0.5296 -1.2315,1.409 -2.2068,1.6423 -0.586,0.3598 -1.5094,0.5319 -1.974,0.9984 -0.4216,0.4234 -0.6309,0.9188 -0.9218,1.4276 -0.3466,0.6065 -0.2502,1.6493 -0.8567,0.5039 -0.3681,-0.6954 0.0652,-1.3037 0.0652,-1.9595 -0.9563,0 -1.2791,1.9555 -1.6481,2.594 -0.4178,0.7232 0.1959,0.6081 0.3352,1.2037 0.1217,0.5207 -0.0186,1.366 -0.0186,1.9221 -0.174,0.1672 -0.1276,0.5174 -0.3911,0.7278 -0.5403,0.4312 -0.9437,2.024 -0.8566,2.706 0.069,0.5409 0.4178,0.8347 0.5214,1.325 0.0489,0.2319 0.0463,0.4743 0.1118,0.6998 0.0676,0.2323 0.4376,0.4879 0.4376,0.6811 0.2584,0.9382 0.7343,1.6286 1.1546,2.4727 0.2478,0.4979 0.1967,1.0686 0.2235,1.6516 0.037,0.8026 -0.3747,0.491 -0.6053,-0.028 -0.1354,-0.3046 -0.063,-0.6248 -0.1117,-0.9424 -0.0812,-0.5299 -0.5141,-0.1333 -0.7542,-0.7092 -0.2264,-0.5433 -0.4093,-0.5971 -0.9498,-0.5971 -0.1561,0.4718 1.2012,2.062 1.406,2.6033 0.101,0.2668 0.1812,1.0902 -0.3538,0.9424 -0.3517,-0.0972 -0.3895,-0.5103 -0.5773,-0.7651 L 69.167,99.5694 c -0.0264,-0.0065 -0.1149,-0.0872 -0.121,-0.1119 -0.0119,-0.003 -0.0161,-0.0064 -0.028,-0.0094 -0.0269,-0.1087 -0.4643,-0.4803 -0.5586,-0.6531 -0.2401,-0.44 -0.2799,-1.0297 -0.5401,-1.493 -0.0425,-0.0757 -0.3203,-0.314 -0.3352,-0.1119 -0.049,0.6629 0.6807,1.9137 0.9963,2.51 0.5152,0.9732 1.288,1.7579 1.7692,2.7152 0.0052,0.1851 0.3228,0.5837 0.4376,0.7465 0.282,0.3996 0.478,1.0453 0.568,1.521 0.1364,0.7214 -0.1718,1.7039 0.4283,2.2394 0.7543,0.6729 1.2105,0.8493 1.2105,1.9688 0.1129,0.2054 0.1793,0.52 0.2793,0.7464 0.149,0.3376 0.6808,0.5134 0.7915,0.9611 0.4393,1.7759 -0.3393,3.8988 0.6704,5.5986 0.1558,0.5312 0.5187,0.9823 0.7542,1.4836 0.6917,1.4726 1.8567,3.8879 1.0894,5.5332 -0.3411,1.18 0.232,2.3484 -0.1769,3.5364 -0.1522,0.4422 -0.5376,0.9605 -1.0335,0.9891 -0.475,0.0273 -0.7315,-0.5972 -1.0802,-0.5972 0,0.765 0.2328,1.6093 0.2328,2.398 0,0.4054 0.0311,0.9546 0.5587,0.8491 0.5865,-0.1172 0.7842,0.3182 1.2291,0.5039 0.287,0.4027 0.7541,1.0048 1.1174,1.325 0.3756,0.3312 0.6279,0.3535 1.0801,0.4665 0.3162,0.0789 0.528,0.4235 0.8752,0.5226 0.7599,0.2171 1.4111,-0.0377 2.1603,-0.0654 0.6423,-0.0238 1.2951,0.2671 1.9553,0.1027 1.1325,0 1.3337,-0.1614 2.1509,-0.9798 0.4403,-0.4411 0.7661,-1.2009 1.4526,-1.3063 1.0921,-0.1678 1.5997,0.3349 2.1602,-0.9331 0.6044,-1.367 1.9275,-0.902 3.0076,-1.129 0.8692,-0.0701 1.8014,-0.3546 2.663,-0.3266 l 2.002,0.0653 c 0.7001,0.0227 0.3245,0.2799 0.7914,0.4759 0.4199,0.1764 1.7723,-0.4386 2.3465,-0.4386 0.861,0 0.8894,0.3858 1.8529,0.0654 2.1091,0.3324 1.4866,-3.1257 3.3055,-3.6577 1.1212,-0.328 1.6763,-0.708 2.7096,-1.325 1.0335,-0.617 2.2847,-1.7424 3.5756,-1.2877 0.8716,0.5619 3.3041,-0.1029 4.1994,-0.4012 1.5475,-0.5158 3.2153,-1.7343 4.786,-1.9688 0.8395,0.0759 1.855,-0.1428 2.7003,-0.224 0.9263,-0.0889 2.6182,0.3243 3.3334,-0.2146 0.7922,-0.5971 1.7936,0.2863 2.5792,0.6812 0.3815,0.0889 0.8933,0.6821 1.1826,0.9424 0.8825,0.7938 1.7528,-0.6719 2.5047,0.028 0.6243,0.581 1.1737,0.9432 2.0858,0.5785 0.2853,-0.1141 1.1409,0.375 1.2011,0.6532 0.0503,0.2323 -0.3803,0.885 0.1676,0.6998 0.8717,-0.2946 1.6955,0.5259 0.9963,0.6811 -0.191,0.0424 -0.6696,0.1774 -0.5866,0.4479 0.0563,0.1838 0.4399,0.6376 0.3818,0.7931 0,1.0892 0.7274,0.6671 1.4991,0.9051 0.369,0.1137 0.6001,0.4518 0.7077,0.8025 0.1637,0.5337 -0.2514,0.4354 -0.2514,0.7745 0.5051,0.1001 1.824,1.2632 1.6853,1.8568 -0.1022,0.4371 0.2665,0.6851 0.2887,1.073 0.0204,0.3548 -0.3202,0.8042 -0.4377,0.3266 -0.1492,0 -0.2328,0.1882 -0.2328,0.3359 0,0.2314 0.2841,0.0898 0.4284,0.2706 0.2002,0.7784 1.3801,1.3344 2.1602,1.3344 0.074,-0.3009 -0.5265,-1.4167 0.1676,-1.605 0.4785,-0.1299 0.7654,-0.9212 1.0242,-1.3343 0.4076,-0.6509 1.3091,-1.6691 2.1416,-1.7075 0.8077,-0.0373 1.1531,-0.5894 1.2012,-1.3717 0.4184,-0.4188 0.3654,-1.0453 0.9311,-1.4369 0.2343,-0.1623 0.494,-0.1131 0.5494,-0.4759 0.038,-0.2485 0.1304,-0.4718 0.1304,-0.7278 0.0519,0.0128 0.4879,1.24 0.5586,1.3996 0.0321,0.0727 -0.2531,0.0917 -0.3352,0.168 -0.6888,0.6393 0.1874,1.4462 0,1.6609 l -0.7169,0.8211 c -0.3097,0.3547 -0.377,0.8321 -0.5587,1.2597 0,0.6253 -0.1862,1.2413 -0.1862,1.8941 0,0.3493 0.0999,0.8485 0.0372,1.1757 -0.1033,0.5395 -1.1616,-0.1855 -1.5177,0.2893 -0.1158,0.1544 -0.6568,1.1053 -0.6891,1.269 -0.0193,0.005 -0.0234,0.0189 -0.0279,0.0373 0.7025,0.5249 1.437,-0.5955 1.974,-0.7278 0.2559,-0.0631 1.1526,0.4048 1.2291,0.2146 0.2425,-0.6022 0.2765,-1.5003 0.4097,-2.1554 0.1284,-0.6312 0.5248,-0.9873 0.6983,-1.5116 0.0374,0 0.3584,0.5163 0.4283,0.5878 0.6967,0.7134 1.3179,2.0678 0.8846,3.1072 -0.1735,0.4162 -0.3269,0.8598 -0.717,1.129 -0.1581,0.1092 -0.6704,0.5389 -0.6704,0.7185 0.3805,0.0941 0.9423,0.0945 1.3502,0.0373 0.2521,-0.0354 0.4311,-0.2239 0.7169,-0.2239 0.3268,0 0.488,0.2021 0.7356,0.2333 0.7862,0.5757 1.4717,1.056 1.9554,1.9408 0.4951,0.9054 0.9125,1.5064 0.9125,2.6033 -0.1079,0.2962 0.0806,0.3869 -0.1117,0.6718 -0.0962,0.1427 -0.5038,0.1905 -0.4842,0.2986 0.1364,0.7531 1.0068,1.9723 1.5922,2.4634 0.5456,0.4576 0.7721,1.4369 1.3781,1.7262 0.9941,0.4745 1.8277,0.1628 2.6165,1.101 0.8932,1.0626 0.7038,-0.0508 1.7971,0.084 0.372,0.1354 0.5747,0.6258 0.9125,0.5132 0.7539,-0.2512 1.242,0.2731 1.825,0.6625 0.8145,0.5441 1.8324,0.7712 2.6444,1.3343 0.2352,0.1632 1.1283,-0.849 1.3222,-1.0357 0.4484,-0.4316 0.8628,-0.9611 1.4153,-1.2597 0.2143,-0.0959 0.7214,7e-4 0.8194,-0.0653 0.1787,-0.1202 0.2708,-0.4545 0.3725,-0.5225 -0.005,-0.0187 -1.0552,-0.0405 -0.9591,-0.4292 0.4719,-0.0956 0.9602,-0.395 1.285,-0.7558 0.531,-0.5901 1.0818,0.991 0.6611,1.4836 -0.1104,0.1292 -0.3432,0.3929 -0.5494,0.2799 -0.1093,-0.06 -0.2299,-0.3547 -0.3259,-0.3173 -0.0489,0.019 -0.0476,0.1223 -0.0652,0.168 -0.0324,0.0837 -0.2515,0.1632 -0.0931,0.2426 0.2618,0.1314 0.4259,0.6636 0.7449,0.6998 0.4526,0.0515 1.517,-0.1543 1.825,0.2053 0.2115,0.2468 0.2162,0.3352 0.5401,0.4385 0.2706,0.0864 0.409,0.2065 0.5773,0.4386 0.144,0.8427 0.6028,0.0984 1.0522,0.4572 0.23,0.1835 0.6575,0.8704 0.7449,1.1384 l 0.0279,0 c 0.5094,-1.0243 1.2625,-1.6658 1.974,-2.5474 1.0419,-1.2908 1.9762,-1.9552 3.3986,-2.7806 0.2451,-0.006 0.4795,-0.1308 0.717,-0.1866 0.3899,-0.0915 0.7866,-0.1399 1.1919,-0.1399 0.3957,0 0.8924,0.0738 1.257,-0.0933 l 0.3347,0.0737 z M 145.725,56.7418 c 0.0681,-0.1454 0.2747,-0.4541 0.2514,-0.5972 -0.0111,-0.0679 -0.2364,-0.1141 -0.298,-0.14 -0.2378,-0.0998 -0.2622,-0.2852 -0.5494,-0.2146 -0.4683,0.1153 -0.561,0.7151 -0.7635,1.0731 -0.1913,0.3384 -0.0324,0.6762 0.2142,0.9237 0.1571,0.1578 0.5221,0.0979 0.7449,0.1959 0.2735,0.1202 0.8566,0.1797 0.8566,-0.2705 0,-0.4677 -0.6797,-0.1245 -0.6797,-0.7278 l 0.2235,-0.2426 z m 7.9983,8.8081 c -0.1257,0.1821 -0.2211,0.4862 0.0558,0.5785 0.2839,0.0945 0.3839,-0.1275 0.596,-0.2612 0.2228,-0.1406 0.5916,-0.1354 0.7542,-0.3546 0.0553,-0.0747 0.0651,-0.2191 0,-0.2893 -0.2654,-0.2857 -1.2458,0.0945 -1.406,0.3266 z m -6.2199,71.4543 c -0.4327,0.1626 -2.1018,0.3978 -2.4395,0.0187 -0.9797,-1.0994 0.863,-1.2361 1.5177,-1.437 0.3494,-0.1073 0.8269,-0.2518 1.1918,-0.2705 0.6683,-0.0342 0.471,0.4933 1.0894,0.5505 0.3426,0.0316 0.7748,0.1281 1.0988,0.2519 0.3587,0.1372 -0.006,0.3377 -0.1956,0.3825 -0.3535,0.0835 -0.7015,-0.1306 -1.0428,0.14 -0.3275,0.2595 -0.3138,0.4852 -0.8101,0.3546 l -0.4097,0.009 z m 21.183,16.7766 c -0.1491,-0.3994 -0.1676,-0.8787 0.0465,-1.2504 0.0895,-0.1553 0.1894,-0.3308 0.2887,-0.4852 0.0737,-0.1144 0.2125,-0.2451 0.2979,-0.0839 0.1589,0.3003 0.2072,0.4339 0.2235,0.7837 0.0215,0.4626 -0.0818,0.7237 -0.1955,1.1571 -0.0476,0.1813 -0.0595,0.2853 -0.2049,0.4198 -0.2355,0.2181 -0.4097,-0.1296 -0.4097,-0.3452 l -0.0465,-0.1959 z m 14.4789,4.8426 c -0.077,0.5167 0.1682,1.0517 0.1583,1.5675 l -0.0279,1.4556 c -0.005,0.2696 0.189,1.9408 -0.0652,1.9408 -0.0322,-0.0975 -0.5108,-0.5505 -0.6239,-0.5505 l -0.0186,0.009 c -0.1641,0.6637 -0.2607,1.3318 -0.2607,2.0434 -0.0397,0.2137 0.0567,0.4846 -0.0838,0.6625 -0.0696,0.0883 -0.2421,0.2582 -0.2421,0.3732 0,0.3767 0.2262,0.7048 0.2421,1.0637 0.0344,0.7759 -1.0242,0.5193 -1.0242,0.112 0,-0.2644 -0.0322,-1.0521 -0.4284,-0.6252 -0.3825,0.412 -0.5274,1.2801 -0.81,1.7915 -0.2604,0.471 -0.3914,0.1307 -0.7636,0.1307 -0.3352,0 -0.2888,0.7222 -0.6517,0.877 -0.3526,0.1503 -1.063,-0.2332 -1.5178,-0.2332 -0.8721,0 -1.0533,0.1023 -1.4804,-0.6438 -0.3531,-0.6166 -0.9048,-1.1435 -1.2384,-1.7542 -0.523,-0.7846 -0.8314,-1.6081 -1.1919,-2.4633 -0.2649,-0.6282 0.281,-1.3371 -0.0838,-2.0994 -0.1246,-0.2605 -0.7076,-0.8519 -0.7076,-1.0917 -0.4991,-0.8484 -0.7535,-1.7685 -0.9125,-2.7339 -0.0841,-0.5104 -0.0373,-1.3896 0.1769,-1.8568 0.2706,-0.5899 1.0489,0.0511 1.4712,0.2613 l 3.0913,1.5395 c 1.117,0.5562 2.4281,-0.1709 3.3706,-0.6811 0.3392,-0.1163 0.6609,0.1275 0.9498,-0.009 0.4067,-0.1925 0.349,-0.5904 0.8845,-0.3919 0.3368,0.1249 0.686,-0.0963 0.7729,-0.4479 0.164,0 0.5736,0.4483 0.7356,0.5505 0.4341,0.2737 0.4097,0.4421 0.4097,0.9144 l -0.1304,0.2893 z m -0.7542,-3.4804 -0.2793,-1.1943 c -0.0736,-0.3152 -0.3482,-0.6263 -0.5215,-0.8957 -0.1888,-0.2933 0.2535,-0.2772 0.4656,-0.4106 0.5144,-0.3238 0.7264,0.4574 0.9311,0.8118 0.2254,0.39 0.8644,1.6107 0.6704,2.0527 -0.1021,0.2324 -0.3274,0.4763 -0.5959,0.5039 -0.4201,0.0431 -0.4688,-0.4894 -0.6611,-0.6998 l -0.009,-0.168 z"
   id="path12"
   inkscape:connector-curvature="0"
   style="fill:#fffacd;stroke:#000000;stroke-width:0.1" />
  <path
   class="fil2 str0"
   d="m 246.333,185.729 c 0.7833,-0.1968 0.3255,-1.3932 0.6518,-1.8382 0.0845,-0.1154 0.5591,-0.2517 0.6704,-0.1399 0.0645,0.0647 0.119,0.4065 0.1769,0.5225 0.1366,0.2741 0.5445,0.8131 0.2979,1.101 -0.2047,0.2388 -0.4642,0.2281 -0.689,0.4292 -0.3343,0.2989 -0.5785,0.586 -1.0429,0.6812 -0.1322,0.0271 -0.4995,0.1498 -0.6052,0.0559 -0.1909,-0.1694 0.1904,-0.6001 0.3259,-0.6904 l 0.2142,-0.1213 z m 21.1271,-25.762 c 0.2971,0.5959 1.1131,1.0729 0.6704,1.7355 l -1.4339,2.1461 c -0.2998,0.4486 -0.723,0.7233 -0.9684,1.2316 l -0.838,1.7355 c -0.5979,0.8245 -1.6202,0.3654 -1.6202,1.8008 0,0.7734 0.5333,1.0933 1.1919,1.2597 0,0.4149 0.1323,1.1539 -0.3725,0.9797 -0.5483,-0.1891 -1.2949,-0.1865 -1.8529,-0.028 -1.5201,0.432 -3.4633,1.2199 -4.0597,2.8272 -0.1096,0.699 0.2795,1.3766 0.009,2.0247 -0.2747,0.6591 -1.0146,0.9195 -1.1173,1.6516 -0.0706,0.5027 0.0423,0.8401 -0.2607,1.2783 -0.363,0.5252 -0.547,0.5733 0.009,0.989 0,0.1764 0.0652,0.3794 0.0652,0.5599 -0.0127,0.0126 -0.0165,0.0241 -0.028,0.028 -0.0444,0.1797 -0.8014,0.0933 -0.959,0.0933 -0.7325,0.3898 -1.0412,0.5955 -1.434,1.3063 -0.2698,0.4881 -0.6002,0.972 -1.0056,1.3622 -0.3193,0.3075 -0.8232,0.6024 -1.2477,0.7278 -0.3694,0.109 -1.4862,0.2383 -1.8156,0.0467 -0.2647,-0.1541 -0.185,-0.4837 -0.596,-0.3266 -1.2716,0.486 -1.0751,0.1214 -1.5456,-0.7931 -0.1993,-0.3998 -0.7979,-0.107 -1.1546,-0.14 -0.4904,-0.0453 -0.514,-0.6998 -0.9777,-0.6998 -1.0438,0 -2.7953,0.6041 -3.1844,-0.989 -0.073,-0.2993 -0.7465,-1.9005 -0.1862,-1.9221 0.4617,-0.0177 0.7009,-0.45 0.8287,-0.8491 0.1692,-0.528 0.3724,-1.0094 0.6424,-1.4836 0.3245,-0.5697 0.8412,-0.9892 1.2477,-1.4929 0.8109,-0.2882 1.7123,-1.8794 2.3558,-2.5006 0.9848,-0.9509 2.3483,-1.2793 3.3334,-2.1834 1.3704,-0.1659 2.5466,-1.9765 3.5382,-2.7805 1.481,-1.2006 2.7804,-1.7497 3.529,-3.6203 0.1669,-0.4254 0.6479,-2.4901 0.9683,-2.6126 0.6245,-0.2386 0.9777,-0.5194 1.2757,-1.1384 0.158,-0.3281 0.3337,-0.6005 0.4097,-0.961 0.0914,-0.4329 0.005,-0.9245 0.1303,-1.3343 0.3709,-0.7446 0.4576,-1.2111 1.2291,-1.6889 0.3673,-0.2274 1.1521,-0.4586 1.5643,-0.3545 0.0619,0.2506 -0.9038,0.3873 -0.6704,1.1196 0.1706,0.535 0.9748,-0.2256 1.1173,0.5039 l 0.2514,1.2876 c 0.1889,0.9675 1.4962,-0.5925 2.0112,-0.7744 0.0875,-0.0308 0.6458,-1.5912 0.6891,-0.6625 0.0506,1.0874 1.3736,-0.023 1.6294,0.9517 0.2493,0.9496 -1.4153,0.9266 -1.4153,1.5769 l 0.0466,0.112 z m 8.8549,-4.9639 -2.6164,3.7976 c -0.426,0.6183 -1.5715,2.3 -2.4582,2.0807 -0.0708,-0.3589 -0.245,-0.6974 -0.3259,-1.0264 -0.531,-0.0751 -1.8856,-0.4091 -1.0614,-1.1663 0.4034,-0.3707 1.0351,-1.885 1.1359,-2.426 0.1169,-0.6278 0.0467,-1.1349 0.1118,-1.7168 -0.0324,-0.3431 -0.4241,-0.8554 -0.6704,-1.0731 -0.26,-0.23 -0.7131,-0.1876 -1.0429,-0.2332 -0.4733,-0.0654 -0.4946,-0.5011 -0.8287,-0.7278 -0.6329,-0.4297 -2.3194,-1.0025 -2.0112,-2.0528 0.1789,-0.6095 1.037,-1.0206 1.5922,-1.213 1.1327,-0.3927 0.7981,-0.8008 1.0708,-1.8288 0.2457,-0.9606 0.7764,-2.2184 0.6145,-3.2377 -0.2052,-1.2912 -1.1009,-2.2548 -1.4153,-3.5177 -0.2476,-0.4966 -0.3304,-1.0544 -0.6518,-1.5209 -0.4384,-0.6366 -0.7624,-1.3172 -1.2384,-1.9407 -0.532,-0.697 -1.2029,-1.5065 -1.5922,-2.2861 l -0.7542,-0.989 c -0.1001,-0.1314 0.2141,-0.5708 0.2235,-0.7931 0.02,-0.4735 -0.2064,-0.8982 -0.5587,-1.2037 -0.1996,-0.1732 -0.7613,-0.8768 -0.9311,-0.933 0.0782,-0.0786 0.7719,-0.3173 0.8846,-0.3173 0.1118,0 0.1795,0.4902 0.2421,0.6252 0.2419,0.522 0.5411,1.0821 1.0614,1.3622 0.3734,0.2011 0.9241,0.145 1.3408,0.2426 0.875,0.2049 2.632,1.5747 2.7375,2.538 0.0398,0.5004 -0.1702,1.0896 -0.1024,1.5116 0.0717,0.446 0.6804,0.6523 0.838,1.101 0.142,0.404 10e-4,0.8574 0.1024,1.2689 0.0901,0.3667 0.5722,0.4574 0.8474,0.6439 0.5341,0.3618 0.5368,1.0791 0.9776,1.5209 0.4582,0.4591 -0.4299,-2.7934 0.3166,-2.2021 1.0656,0.8439 1.6295,1.4706 1.6295,2.8645 -0.2427,1.5624 1.7533,2.1883 2.8585,2.6126 0.8882,0.3411 1.2764,0.5189 2.1323,0.0653 0.7112,-0.3768 1.1505,-1.5284 2.0671,-1.5862 0.2909,0.0747 1.6481,0.3652 1.6481,0.6905 0,0.3342 -0.5811,0.5632 -0.7077,0.9237 -0.1242,0.3535 0.005,0.8057 -0.0559,1.1757 -0.0839,0.5096 -0.0996,1.4647 -0.4748,1.8475 -0.529,0.5399 -1.0056,0.3801 -1.0056,1.3529 0.047,0.2206 0.1507,1.4369 -0.1863,1.4369 0,-1.654 -2.5174,-0.6866 -2.9796,0.252 -0.3944,0.8012 0.505,0.9224 0.3166,1.6702 -0.1476,0.5857 -0.4248,1.5768 -0.838,2.0247 l -0.2421,0.3826 z"
   id="path14"
   inkscape:connector-curvature="0"
   style="fill:#cbe3ff;stroke:#000000;stroke-width:0.1" />
  <path
   class="fil1 str0"
   d="m 282.246,69.2355 c -0.5573,-0.0483 -0.9854,-0.6645 -1.4153,-0.9517 -0.2816,-0.188 -0.7614,-0.0463 -1.0522,0.084 -0.3183,0.1425 -0.6521,0.1051 -0.8101,0.4758 -0.2131,0.4996 -0.5662,1.0815 -0.8939,1.5116 -0.3767,0.4942 1.939,1.4147 2.4675,1.2876 0.5721,-0.1377 1.0031,-0.4165 1.6202,-0.5038 0.3287,-0.0465 1.0056,-0.3304 1.0056,-0.7278 -0.176,-0.1315 -0.4499,0.004 -0.6146,-0.2519 -0.1308,-0.2034 -0.3165,-0.4753 -0.3165,-0.7278 l 0.009,-0.196 z m 4.7539,-5.1785 c -0.3688,0 -0.6996,0.2239 -1.1319,0.2239 -0.452,0 -0.8497,0.4025 -1.2477,0.5879 -0.3859,0.1799 -0.7519,0.2893 -1.0894,0.5598 -0.3055,0.2447 -0.4616,0.3556 -0.8473,0.4106 -0.5908,0.0844 -0.5418,1.2036 0,1.2036 0.4934,0 1.1367,-0.5287 1.6481,-0.6718 0.3126,-0.0875 0.4097,0.1027 0.6983,0.1027 0.4166,0 0.8118,0.0559 1.2198,0.0559 0.2117,0 0.4241,0.14 0.6797,0.14 0,-0.5981 -0.8184,-0.3194 -1.136,-0.6905 -0.29,-0.339 0.5937,-1.0064 0.8194,-1.1383 l 0.387,-0.2613 0,-0.5225 z"
   id="path16"
   inkscape:connector-curvature="0"
   style="fill:#fffacd;stroke:#000000;stroke-width:0.1" />
  <path
   class="fil3 str0"
   d="m 243.353,62.0043 c -0.2592,-0.4079 -0.2084,-1.1932 -0.3073,-1.6702 -0.071,-0.3421 -0.252,-0.6772 -0.0931,-1.0357 0.257,-0.5802 0.8284,1.1547 0.9125,1.3063 0.0757,0.1367 0.2876,0.5138 0.4469,0.3545 0.0576,-0.0576 0.3032,-0.7229 0.3352,-0.8211 0.1694,0 0.3707,1.0529 0.3911,1.213 0.0283,0.2225 0.6336,1.8845 -0.0652,1.297 -0.2838,-0.2387 -0.5189,-0.6566 -0.8566,-0.2613 -0.0955,0.1119 -0.0826,0.1916 -0.2421,0.224 -0.191,0.0389 -0.4068,-0.1683 -0.419,-0.3546 l -0.1024,-0.2519 z m 3.2682,2.5192 c -0.1897,-0.0659 -0.5703,-0.4461 -0.7076,-0.6065 -0.1684,-0.1969 -0.8474,-1.0704 -0.8474,-0.3918 0,0.209 0.1015,0.4133 0.2794,0.5225 0.1066,0.0655 0.3307,0.0716 0.3817,0.1959 0.1237,0.3017 0.1566,1.31 0.5308,1.4183 0.1987,0.0575 0.2287,0.0035 0.391,-0.1027 0.1371,-0.0896 0.4451,0.0021 0.4842,-0.1959 0.0561,-0.2834 -0.2535,-0.4516 -0.4003,-0.6718 l -0.1118,-0.168 z m 1.7226,-1.5022 c -0.1497,-0.1727 -0.2004,-0.8007 -0.2049,-1.045 l -0.0186,-0.9798 c 0.1041,0 0.2726,0.7676 0.3166,0.8865 0.1571,0.4248 0.3073,0.8307 0.3073,1.2876 0,0.3609 -0.0963,0.8841 -0.3539,0.1773 l -0.0465,-0.3266 z m 1.1732,6.2889 c -0.1232,-0.1045 -0.4613,-0.7915 -0.6332,-0.6158 l -0.4748,0.4851 c -0.1762,0.1801 -0.008,0.3445 0.121,0.4666 0.044,0.0416 0.1104,0.0894 0.1583,0.1306 0.0982,0.0843 0.1029,0.1466 0.2328,0.1773 0.3902,0.0923 0.7449,0.2389 0.7449,-0.3732 l -0.149,-0.2706 z m -0.8939,-4.7773 c -0.115,-0.096 -0.1434,-0.3266 -0.3259,-0.3266 -0.2558,0 -0.6328,0.0366 -0.5586,0.4012 0.0162,0.0801 0.0912,0.1251 0.1396,0.1773 0.0836,0.0899 0.1446,0.1916 0.2794,0.2146 0.0772,0.0132 0.1753,0.0405 0.2514,0.0373 0.0963,-0.004 0.2081,-0.0768 0.2886,-0.1306 l -0.0745,-0.3732 z m 0.1583,1.6328 c -0.0912,-0.0491 -0.1331,-0.1579 -0.2048,-0.2239 -0.0973,-0.0897 -0.225,-0.1998 -0.3725,-0.1586 -0.0803,0.0225 -0.1955,0.0471 -0.1955,0.1586 0,0.1074 0.0187,0.1865 0.0652,0.2799 0.0212,0.0428 0.0758,0.1111 0.1117,0.14 0.0498,0.0403 0.0726,0.0627 0.1117,0.112 0.1684,0.2119 0.2909,0.0744 0.4842,-0.0467 l 0,-0.2613 z m 3.11,7.3153 c -0.1102,-0.2385 -0.2253,-0.4875 -0.4563,-0.6438 -0.1581,-0.1071 -0.3968,-0.1432 -0.5307,0.0373 -0.2189,0.2953 0.1805,0.607 0.3165,0.8304 0.0759,0.1246 0.1683,0.2075 0.298,0.2799 0.2094,0.1171 0.3559,-0.0504 0.4749,-0.2146 l -0.1024,-0.2892 z m 0.5214,2.2394 c -0.0251,-0.1361 -0.0813,-0.3223 -0.1583,-0.4386 -0.1185,-0.1791 -0.3397,-0.2913 -0.5307,-0.1493 -0.1608,0.1197 -0.0748,0.2714 -0.009,0.4199 0.0557,0.1263 0.1412,0.2371 0.1863,0.3639 0.0632,0.1781 0.1542,0.3138 0.3352,0.3639 0.1943,0.0539 0.1871,-0.1729 0.2327,-0.2799 l -0.0558,-0.2799 z"
   id="path18"
   inkscape:connector-curvature="0"
   style="fill:#d3e9c7;stroke:#000000;stroke-width:0.1" />
  <path
   class="fil4 str0"
   d="m 240.821,82.4291 c -0.4404,-0.2936 -0.9697,-0.6631 -1.3128,-1.073 -0.2664,-0.3181 -0.5045,-0.7923 -0.8194,-1.0451 -0.7325,-0.5883 -1.7254,-0.9832 -2.4861,-1.5955 -0.33,-0.2655 -1.2127,-1.0917 -1.6015,-1.0917 0,0.592 0.4612,1.238 0.8287,1.6515 0.42,0.4724 0.6553,1.5753 1.2663,1.8102 0.482,0.4291 0.7646,1.0392 1.2756,1.4649 0.5854,0.4875 1.1184,0.7976 1.7971,1.1197 l 2.4209,1.6329 c 0.245,0.1651 0.5067,0.3041 0.7542,0.4758 0.4337,0.3007 0.554,0.7983 1.1266,0.2893 0.3839,-0.3414 0.7597,-0.4693 0.3259,-0.9704 -0.9029,-1.0432 -2.2053,-1.5766 -3.2123,-2.5006 l -0.3632,-0.168 z m 7.3093,0.3079 c -0.0955,-0.0884 -0.1877,-0.1946 -0.2979,-0.2706 -0.0883,-0.061 -0.1988,-0.096 -0.2887,-0.1586 -0.16,-0.1112 -0.3914,-0.0665 -0.4935,0.0933 -0.1112,0.1742 0.2079,0.5865 0.3352,0.6998 0.1221,0.1085 0.1662,0.1461 0.3259,0.2053 0.0806,0.0298 0.1832,-0.0074 0.2607,-0.028 0.1334,-0.0354 0.1471,-0.1149 0.1863,-0.2426 l -0.028,-0.2986 z m -2.5233,-1.9501 c -0.1094,0.0156 -0.3376,-0.6457 -0.5307,-0.7651 -0.1108,-0.0686 -0.2421,-0.0737 -0.2421,0.0746 0,0.1326 0.0228,0.2104 -0.1025,0.2893 -0.3388,0.2131 -0.2839,0.286 -0.0372,0.5598 0.0594,0.0658 0.1337,0.1616 0.2142,0.2053 0.1629,0.0884 0.2478,0.1051 0.3352,0.2799 0.1098,0.2196 0.2627,0.2814 0.5028,0.168 0.2999,-0.1418 0.1135,-0.4629 0.0931,-0.6905 l -0.2328,-0.1213 z"
   id="path20"
   inkscape:connector-curvature="0"
   style="fill:#eee0e6;stroke:#000000;stroke-width:0.1" />
  <path
   class="fil2 str0"
   d="m 227.701,46.1794 c -0.0976,0.0184 -0.7082,-0.2664 -0.8287,-0.3452 -0.3996,-0.2617 -0.3436,-0.713 -0.7915,-0.9237 -0.3761,-0.1768 -0.5483,-0.6867 0.0745,-0.4572 0.3164,0.1165 0.6422,0.3466 0.9684,0.4852 0.3877,0.1646 1.1133,0.2027 1.378,0.5318 0.095,0.1182 0.5587,0.6671 0.5587,0.7745 -0.3747,0 -0.772,0.0655 -1.136,0.0466 l -0.2234,-0.112 z m -2.6724,-4.8612 c -0.1703,-0.0122 -0.6413,-0.5227 -0.7449,-0.6812 -0.2113,-0.3229 -0.3706,-0.939 -0.4283,-1.3156 -0.0679,-0.4439 -0.324,-0.7352 -0.419,-1.1197 0.1654,0 0.7386,-0.3395 0.8101,-0.1959 0.3102,0.6233 0.3251,1.3353 0.7915,1.9128 0.3391,0.42 0.5395,0.7347 0.7728,1.2036 0.2274,0.4568 0.7652,0.772 0.9311,1.3156 0.1053,0.3454 -0.6113,-0.0892 -0.689,-0.1772 -0.2179,-0.2464 -0.5186,-0.4561 -0.7635,-0.6812 l -0.2608,-0.2612 z m -2.7281,1.7728 c -0.3339,0.0586 -0.9636,0.0031 -1.2943,-0.0747 -0.6685,-0.1572 -0.9544,-1.2787 -0.6425,-1.8474 0.1228,-0.2241 0.454,0.1923 0.596,0.2892 0.5544,0.3782 1.2949,0.0372 1.8808,0.2893 0.38,0.1634 0.409,0.4171 0.717,0.6251 0.1666,0.1124 1.1886,0.4693 0.8566,0.6718 -0.4848,0.2959 -1.2529,0.0897 -1.7877,0.056 l -0.3259,-0.0093 z m -3.3148,-5.6264 c -0.4612,-0.0368 -1.4218,-1.0398 -1.9368,-1.2876 -0.317,-0.1526 -1.3873,-0.8284 -1.3873,-1.1757 0.0871,-0.0215 1.6856,0.5842 1.825,0.6811 0.8011,0.5565 1.5065,1.1651 2.3836,1.6049 0.4224,0.2117 1.3409,0.8762 1.3409,1.381 -0.1406,0 -0.2825,-0.2524 -0.4377,-0.2893 -0.3046,-0.0726 -0.3117,0.2297 -0.7262,-0.1026 -0.3046,-0.2441 -0.631,-0.4271 -0.9684,-0.6345 l -0.0931,-0.1773 z m -4.7674,0.2892 c -0.2832,-0.2635 -0.5246,-0.5494 -0.8007,-0.8117 -0.335,-0.3181 -0.4603,0.3089 -0.6797,0.4292 -0.3791,0.2077 -0.3959,-0.1244 -0.4656,-0.4386 -0.0478,-0.2159 -0.4684,-0.5609 -0.3818,-0.2239 0.0881,0.3424 0.0511,0.7366 0.1863,1.0544 0.1518,0.3565 0.5195,0.2745 0.838,0.3359 0.3094,0.0597 0.5769,0.0902 0.838,0.2612 0.2637,0.1726 0.6425,0.494 0.8845,0.7092 0.2457,0.2186 0.1994,0.2064 0.5029,0.3265 0.1138,0.0451 0.3844,0.2915 0.5028,0.196 0.381,-0.307 -1.1685,-1.2694 -1.2477,-1.5862 l -0.177,-0.252 z m -2.5792,-3.359 c -0.5574,-0.3912 -1.0577,-0.8822 -1.527,-1.3529 -0.3207,-0.3215 -0.8601,-0.9803 0.0745,-0.6439 0.5593,0.2012 1.0593,0.6327 1.5643,0.9424 0.2523,0.1546 0.4564,0.4762 0.6611,0.6812 0.2857,0.2863 0.7354,0.5056 1.0894,0.7091 0.1374,0.079 1.0372,0.3217 1.0521,0.3826 -0.5675,0.34 -2.0254,-0.2472 -2.5698,-0.5039 l -0.3446,-0.2146 z"
   id="path22"
   inkscape:connector-curvature="0"
   style="fill:#cbe3ff;stroke:#000000;stroke-width:0.1" />
  <path
   class="fil3 str0"
   d="m 179.804,17.1704 c -0.486,0.1036 -1.1843,-0.2147 -1.6481,-0.0467 -0.2753,0.0998 -1.1175,0.6842 -0.9218,1.0264 0.4529,0.0498 0.7209,-0.1168 1.1452,-0.2239 0.4589,-0.1159 0.9006,-0.0178 1.3688,-0.2053 0.2261,-0.0906 0.3713,-0.2058 0.5587,-0.3452 0.2572,-0.1912 -0.0402,-0.3254 -0.2608,-0.252 l -0.242,0.0467 z m 26.1372,15.1327 c -0.1633,-0.7674 -0.4329,-1.2396 -1.1174,-1.6609 -0.7036,-0.4332 -0.4945,-0.9488 -0.689,-1.5863 -0.0707,-0.232 -0.2744,-0.4169 -0.3445,-0.6718 -0.0484,-0.1758 -0.1551,-1.3156 0.0186,-1.3156 0.1102,0 0.2396,0.5592 0.27,0.6531 0.1,0.308 0.2816,1.183 0.6332,1.241 0.5322,0.0879 0.6086,-0.1559 0.9311,0.3826 0.2296,0.3833 0.7879,1.4464 1.2105,1.5769 0.6556,0.2026 0.608,0.1201 1.0149,0.6625 0.1539,0.2053 0.3555,0.6162 0.419,0.8585 0.0827,0.315 -0.2626,0.1435 -0.4562,0.2426 -0.3215,0.1645 -0.0911,0.6218 -0.7449,0.5038 -0.4005,-0.0722 -0.7914,-0.2118 -1.015,-0.5692 l -0.1303,-0.3172 z m -8.5199,-9.1629 c -0.42,-0.2351 -0.8638,-0.791 -1.2104,-1.1384 -0.4034,-0.4042 -0.8258,-0.5598 -1.3129,-0.8398 -0.891,-0.5124 -1.8402,-1.3058 -2.7655,-1.6982 -0.6497,-0.2756 -1.8223,-0.2812 -2.2626,-0.8584 -0.317,-0.4154 -0.6169,0.2868 -0.8101,0.5318 -0.179,0.2268 0.4331,0.3826 0.6145,0.3826 1.1959,0 1.8121,0.1792 2.8493,0.7371 0.4635,0.4007 1.145,0.6874 1.6667,1.0358 0.3574,0.2388 0.76,0.615 1.1732,0.7371 0.7219,0.2132 1.0505,0.6326 1.555,1.1384 0.6935,0.6955 0.4471,0.9852 0.6611,1.8475 -0.0872,0.2946 0.0505,0.6658 0.2235,0.9051 0.0462,0.0639 0.5008,0.6038 0.5494,0.6158 0.006,0.0235 0.0253,0.0321 0.0465,0.0373 0.1415,-0.1415 0.3137,-0.5798 0.3911,-0.7744 0.2003,-0.5039 0.2018,-0.9905 -0.0745,-1.4743 -0.1298,-0.2275 -0.2353,-0.4316 -0.419,-0.6158 -0.1578,-0.1581 -0.4984,-0.2851 -0.6052,-0.4573 l -0.2701,-0.1119 z m -5.2236,4.8334 c 0.2886,-0.4929 0.5578,-0.7266 1.0522,-0.9891 0.4604,-0.2443 1.3011,0.1517 1.1266,-0.8118 -0.1444,-0.7969 -0.5597,-0.8978 -0.3445,-1.7729 0.3978,0 0.756,0.8386 1.3502,0.2426 0.1261,-0.1264 0.972,-0.1365 0.987,-0.0933 0.2136,0.6153 0.371,0.9718 0.2979,1.7356 -0.0826,0.862 -0.9002,0.8457 -1.5177,0.9984 l 0,0.0186 c 0.6924,0.2775 0.9619,1.4886 -0.0466,1.5956 -0.3588,0.0381 -0.6527,0.0522 -1.0056,-0.056 -0.1888,-0.0578 -1.1721,1.6796 -1.9368,1.6796 -1.183,0 -1.6749,0.9753 -3.0634,0.9144 -0.3935,0.2177 -1.3569,0.1089 -1.6853,-0.1586 -0.2578,-0.2101 -0.2604,-0.6859 -0.6239,-0.7558 -0.467,-0.0899 -0.7317,0.7434 -1.3222,0.4012 -0.2638,-0.5472 -0.6818,-0.9514 -1.3315,-0.989 -0.5369,-0.031 -0.6704,-0.503 -0.6704,-0.9891 0,-0.6346 0.8311,-0.2228 1.2663,-0.2706 0.9778,-0.1073 1.8424,0.0887 2.8027,0.056 1.055,-0.036 1.1779,-0.3091 1.4153,-1.269 0.1553,0.0382 -0.0251,1.6435 0.9591,1.3156 0.9163,-0.3054 1.4489,0.2637 2.1509,-0.7931 l 0.1397,-0.0093 z m -9.7676,1.017 c -0.0657,-0.0354 -0.1078,-0.0933 -0.1676,-0.1306 -0.1555,-0.0968 -0.397,-0.1856 -0.5773,-0.2146 -0.1466,-0.0236 -0.3538,0.0183 -0.3538,0.1959 0,0.1249 0.2246,0.285 0.3073,0.3639 0.0841,0.0804 0.1709,0.1486 0.2514,0.2333 0.1132,0.1193 0.1597,0.2648 0.3352,0.3079 0.2815,0.0693 0.2345,-0.149 0.2514,-0.3545 l -0.0466,-0.4013 z m 15.4376,12.1969 c -0.1761,-0.0439 -0.1828,-0.2535 -0.3259,-0.3172 -0.2794,-0.1246 -0.7327,-0.1621 -0.8846,-0.4665 -0.1891,-0.3787 0.2872,-0.2708 0.5028,-0.2146 0.4357,0.1138 0.8582,0.0536 1.2105,0.3825 0.1075,0.1003 0.2247,0.2068 0.2141,0.3452 -0.01,0.1305 -0.3778,0.2314 -0.4841,0.2706 l -0.2328,0 z m -5.9219,1.7262 c -0.2187,0.116 -0.1736,-0.5557 -0.2328,-0.6905 -0.1439,-0.3279 -0.175,-0.2302 -0.4842,-0.3825 -0.1794,-0.0883 -0.4109,-0.3484 -0.6332,-0.2146 -0.2774,0.1668 0.0408,0.4387 0.149,0.5878 0.2809,0.3867 0.6333,0.7521 0.8939,1.1383 0.197,0.2921 1.0453,1.2366 1.257,0.4199 0.0948,-0.3656 -0.3058,-0.1844 -0.5121,-0.2332 -0.1513,-0.0357 -0.137,-0.1368 -0.1583,-0.2613 -0.0249,-0.1462 -0.1597,-0.2132 -0.1676,-0.3266 l -0.1117,-0.0373 z m 8.3893,6.2609 c -0.254,-0.1375 -0.909,-0.547 -1.0428,-0.8024 -0.051,-0.0973 -0.5119,-1.04 -0.0466,-0.7932 0.2389,0.1268 0.4757,0.4818 0.6891,0.6625 0.3463,0.293 1.0274,0.121 1.3408,0.4012 0.3131,0.2801 -0.2527,0.5319 -0.4842,0.5319 l -0.4563,0 z m -40.8804,-29.9307 0.0695,11.9074 c -0.0854,0.4123 -0.8409,0.9642 -0.6518,1.4147 0.0912,0.2171 0.2339,0.3724 0.3538,0.5598 0.1589,0.2481 0.1732,0.4748 0.2328,0.7745 l 0.0296,6.6394 0,0 c 0.113,0.053 0.2217,0.0928 0.3242,0.116 1.4759,0.3344 2.9547,0.0125 4.4135,0.4012 0.2391,-0.0274 0.2542,0.0901 0.4004,0.2239 0.1785,0.1635 0.3907,0.0507 0.5587,-0.0839 0.2332,-0.187 0.4552,-0.3571 0.7542,-0.4199 0.5243,-0.1023 1.5715,-0.3745 1.257,-1.129 -0.1647,-0.395 -0.8566,-0.997 -0.8566,-1.3903 0.4874,-0.0966 1.6566,-0.3618 1.9088,-0.8024 0.3157,-0.5514 0.3416,-1.1726 1.0149,-1.4556 0.5804,-0.1058 1.5645,-0.1553 2.1415,-0.0187 0.5339,0.1265 0.9096,0.4568 1.4433,0.5785 1.8922,0.4315 2.9684,0.1746 3.92,2.0901 0.215,0.3447 0.4959,0.5518 0.6983,0.9331 0.1216,0.229 0.1696,0.7253 0.4563,0.7931 0.7878,0.1865 0.8553,0.1666 1.0335,0.9983 0.1765,0.8236 0.5162,0.4738 1.0801,0.6065 0.4925,0.1158 0.7738,1.2594 1.1453,1.6142 0.3763,0.3592 1.8782,0.5372 2.4116,0.6719 0.5835,0.3622 1.5951,0.1041 2.2626,0.3265 0.5778,0.1926 1.2782,0.262 1.8809,0.3546 0.8247,0.1266 1.2322,1.0998 2.0485,1.073 0.3403,-0.0112 0.5464,-0.4302 0.9683,-0.3172 0.1045,0.0279 0.7647,0.1465 0.7077,-0.084 -0.1974,0 -0.6953,-0.3081 -0.8753,-0.4199 -0.3876,-0.241 -1.1027,-0.6581 -0.1676,-0.4479 0.1833,0.0412 1.0149,0.1183 1.0149,-0.2052 -0.9143,-0.231 -3.171,-0.5559 -3.501,-1.5676 0.5201,-0.1286 1.1826,0.1547 1.1826,-0.5318 -0.7166,-0.1801 -2.015,-0.0827 -2.5699,-0.6065 -0.2576,-0.2433 -0.6356,-0.6485 -0.0559,-0.8584 0.2136,-0.0774 0.237,-0.6709 0.0931,-0.7185 l 0,-0.0187 c -1.3503,0 -1.563,0.9351 -2.8678,-0.4385 l -0.0932,-0.3826 c -0.1812,-0.5448 -0.5668,-1.01 -0.6983,-1.5489 -0.1634,-0.6693 -0.7256,-1.0332 -1.3687,-1.2129 -0.4911,-0.1373 -0.5525,-0.7885 -0.9963,-1.0357 -0.4725,-0.2631 -1.1039,-0.8199 -1.015,-1.4276 -0.1393,-0.5612 -1.378,-1.0923 -0.1489,-1.2317 0.6431,-0.073 1.4518,-0.2986 2.067,-0.2986 1.241,0 -0.3247,-2.1032 -0.8473,-2.314 -0.8539,-0.3446 -1.6556,-0.1747 -2.4581,-0.7184 -0.5198,-0.3523 -0.9587,-0.6768 -1.5922,-0.8118 -0.2863,-0.0952 -1.7041,-0.018 -1.6481,-0.4012 0.0631,-0.4311 0.3724,-0.8498 0.3724,-1.2877 0,-0.5528 -1.3113,-2.1481 -1.8343,-2.1647 -1.0767,-0.0342 -1.0523,-0.4329 -1.7691,-1.0823 -0.4133,-0.3743 -0.3911,-0.4287 -0.3911,-0.9518 l -0.009,-0.0093 c -0.3953,0 -0.7321,0.0994 -1.136,0.028 -0.5487,-0.0339 -1.1553,-0.0629 -1.6294,-0.3732 -0.2995,-0.1961 -0.7193,-0.8864 -1.0243,-0.8864 -1.3091,0 -2.4552,-0.1553 -3.6593,-0.6905 -0.767,-0.3408 -1.0793,-0.721 -1.946,-0.8771 -0.5986,-0.171 -1.0712,-0.4329 -1.6295,-0.6811 -0.2606,-0.1158 -0.5335,-0.1625 -0.805,-0.2032 l 0,0 z"
   id="path24"
   inkscape:connector-curvature="0"
   style="fill:#d3e9c7;stroke:#000000;stroke-width:0.1" />
  <path
   class="fil4 str0"
   d="m 23.0603,10 c 0.7005,0.2612 1.7248,1.5293 2.1043,2.2158 0.7795,1.4102 1.0121,2.9527 2.3837,3.9749 0.8215,0.6121 0.1899,1.2392 0.5772,2.0154 0.4012,0.8043 1.1163,1.3036 1.5271,2.1274 0.0618,0.2033 0.2694,0.3393 0.3996,0.5132 0.2586,0.3456 0.3903,0.6115 0.7449,0.8957 0.5254,0.4213 1.1311,0.6622 1.6388,1.073 0.2426,0.1964 0.1486,0.3736 0.2235,0.6439 0.098,0.354 0.2618,0.5116 0.5586,0.7277 0.3829,0.0769 0.8778,0.8957 1.1919,1.1291 0.3479,0.2587 0.9537,0.4206 1.2197,0.6718 0.2451,0.2313 0.4639,0.6036 0.7822,0.7464 0.4737,0.2124 1.1114,0.2751 1.4712,0.6812 0.3873,0.4373 0.571,1.0241 1.0707,1.3716 0.3811,0.2978 0.6415,0.6336 0.9777,0.9704 0.1164,0.1167 0.7176,0.8382 0.7449,0.2892 0.0116,-0.2324 -0.3946,-1.0582 -0.1024,-1.2036 0.3004,-0.1496 1.3152,1.086 1.5084,0.7557 0.2447,-0.4181 0.1851,-1.1831 0.7915,-0.6438 0.1876,0.1669 1.1583,1.7351 1.4897,0.8771 0.4283,-1.1091 -0.0473,-2.291 0.1583,-3.3964 0.2114,-0.8249 0.2696,-1.644 0.3818,-2.4913 0.1061,-0.8007 -0.1127,-0.9293 -0.2793,-1.6421 -0.0387,-0.1654 1.4321,-0.9891 0.7169,-1.5676 -0.7709,-0.6237 -0.994,-0.8054 -1.378,-1.8102 -0.4009,-0.8784 -0.9888,-0.389 -1.6481,-0.7557 -0.5528,-0.3076 -0.7913,-0.6203 -1.1639,-1.1104 -0.5771,-0.7593 -1.0708,-0.6958 -1.0708,-1.8475 0,-1.1897 -0.0328,-1.5582 -1.3687,-1.5582 -0.3371,-0.0531 -0.6683,-0.0267 -1.0057,-0.0933 -0.7077,-0.1397 -0.997,-0.7682 -0.3352,-1.1663 0.3083,-0.1855 0.4333,-0.3015 0.5401,-0.6532 0.1132,-0.3724 0.0093,-0.6503 0.0093,-1.0263 l 0,-0.7136 -14.8599,0 z m -2.4962,2.2438 c -0.1756,-0.2564 -0.068,-0.5462 -0.0838,-0.8304 -0.0079,-0.1437 -0.1908,-0.6067 -0.3724,-0.5412 -0.193,0.0697 -0.0281,0.4363 0,0.5691 0.0318,0.1507 0.0557,0.2677 0.0093,0.4199 -0.0569,0.1869 -0.0683,1.0732 0.2979,0.7372 l 0.149,-0.3546 z m 1.1453,4.0495 c -0.3447,-0.3456 -0.6009,-0.8636 -0.838,-1.269 -0.2255,-0.3854 -0.0258,-1.0632 0.419,-1.1943 0.4781,-0.1408 0.5144,0.5371 0.717,0.8304 0.1559,0.2259 0.2919,0.4783 0.4283,0.7092 0.175,0.2965 0.5081,0.5091 0.3817,0.9237 -0.1463,0.4795 -0.5907,0.4136 -0.959,0.1866 l -0.149,-0.1866 z m 5.056,4.0775 c -0.3923,-0.1469 -0.7976,-0.7769 -1.0336,-1.1103 -0.0496,-0.0702 -0.2304,-0.3758 -0.3538,-0.252 -0.311,0.3122 0.2109,0.6952 0.3818,0.8771 0.229,0.2435 0.1418,0.345 0.2607,0.6158 0.0871,0.1986 0.2053,0.212 0.3166,0.3639 0.1036,0.1412 0.1217,0.6104 0.3817,0.5599 0.4745,-0.0923 0.0745,-0.5542 0.0745,-0.8305 l -0.0279,-0.2239 z m -2.1788,-2.426 c -0.1679,-0.2183 -0.2308,-0.5022 -0.4284,-0.6998 -0.1539,-0.1539 -0.3065,0.0778 -0.3165,0.224 -0.0197,0.2878 0.3391,0.5084 0.4748,0.7278 0.043,0.0695 0.1191,0.25 0.1863,0.2799 0.2139,0.095 0.1715,-0.1041 0.1583,-0.252 l -0.0745,-0.2799 z m 8.2343,10.7875 c -0.1108,-0.0538 -0.2108,-0.1482 -0.3305,-0.1866 -0.2076,-0.0668 -0.374,-0.2545 -0.4516,-0.4572 -0.0619,-0.162 0.0579,-0.2271 0.1908,-0.14 0.2124,0.139 0.474,0.1716 0.6844,0.3079 0.123,0.0796 0.2389,0.4432 0.0233,0.4806 l -0.1164,-0.0047 z m 8.1627,-17.6735 c -0.1578,-0.045 -0.4202,-0.4626 -0.5214,-0.6065 -0.2968,-0.4222 -0.5589,0.6067 -0.7543,0.8024 -0.1324,0.1327 -0.7841,0.4663 -0.7448,0.6252 0.0614,0.2486 0.3308,0.5041 0.4469,0.7371 0.0948,0.1905 0.0951,0.4479 0.3631,0.4479 0.3364,0 0.4577,-0.5707 0.6611,-0.7745 0.2366,-0.2369 0.544,-0.5663 0.6146,-0.905 l -0.0652,-0.3266 z m 5.6053,7.8284 c -1.5671,-0.4811 -0.5182,-3.2335 -2.2719,-3.1817 -0.5347,0.0158 -1.0071,0.1657 -1.3781,0.5691 -0.2147,0.2336 -0.6768,0.7457 -0.7449,1.0451 -0.0723,0.3175 0.848,0.2974 1.0895,0.4012 0.6104,0.2622 0.884,0.7009 1.1173,1.2876 0.1836,0.462 0.406,0.9198 0.9125,1.0637 0.3991,0.1133 0.5569,0.0564 0.7914,0.4479 0.2135,0.3566 0.8276,0.6813 1.1174,0.2519 0.2095,-0.3106 -0.1038,-0.9098 -0.1211,-1.3063 l -0.5121,-0.5785 z m 4.9722,0.1493 c -0.2764,0.0392 -0.49,-0.2333 -0.7821,-0.2333 -0.2132,0 -0.3439,0.2121 -0.3911,0.3919 -0.1075,0.41 -0.5954,0.6464 -0.4097,1.129 0.1497,0.3888 0.1174,0.6345 0.5959,0.6345 0.2783,0 0.4344,-0.1891 0.7263,-0.0373 0.5458,0.2837 0.7602,-0.0373 0.9404,-0.5412 0.1492,-0.4175 0.0806,-1.0088 -0.3817,-1.2223 l -0.298,-0.1213 z M 54.7362,10 c -0.131,0.7664 -0.0979,1.3279 0.0559,2.0852 0.1072,0.5275 0.4,1.2491 0.7542,1.6515 0.3048,0.3462 -0.0635,0.7227 0.121,1.0917 0.2081,0.4165 1.3418,-0.3271 1.9182,0.0186 0.2933,0.176 0.4211,0.4687 0.5028,0.7745 0.1087,0.4073 -0.2235,0.6419 -0.2235,1.017 0.1304,0.4974 0.5096,0.8946 0.568,1.4276 0.0572,0.5227 0.1119,2.2615 0.6797,2.4727 0.8136,0.3025 1.8258,0.4472 2.663,0.2612 1.1965,-0.2657 2.5874,-0.9451 2.0298,0.9611 -0.423,1.4458 1.3597,-0.3985 2.1695,0.0746 0.5162,0.3832 0.622,0.3827 1.2198,-0.0933 0.1835,-0.146 0.4418,-0.3139 0.5773,-0.5038 0.4582,-0.6424 0.4042,-0.3241 0.6797,0.0653 0.3472,0.4905 1.4756,0.8935 2.0485,0.9424 0.7097,0.0605 1.393,0.2519 2.1136,0.2519 0.509,0 0.5215,-0.098 0.5215,0.4945 0,0.219 -0.1723,1.4729 -0.0187,1.4929 0.8291,0.1084 1.0969,-0.4995 1.7971,-0.7931 0.5891,-0.024 1.1774,-0.4545 1.6946,-0.7091 0.1918,-0.0945 0.7425,-0.5354 0.9032,-0.3546 0.4415,0.4964 0.124,1.4591 0.6052,1.6516 0.384,0.1535 0.6552,-0.9339 0.8008,-1.297 0.1265,-0.3158 0.3519,-0.8271 0.0559,-1.101 -0.4301,-0.3982 0.0093,-1.2445 0.0093,-1.8662 0,-0.5207 0.0837,-0.4028 0.4935,-0.5785 0.3396,-0.1455 0.28,-0.6632 0.3073,-0.989 0.0938,-0.5962 -0.2301,-1.2671 -0.2701,-1.8662 -0.05,-0.7472 -0.1032,-0.8801 0.6425,-1.2596 0.5093,-0.2593 0.6702,-0.2765 1.0056,-0.7744 0.4767,-0.7079 0.5226,-0.5212 1.3315,-0.6812 0.3225,-0.0637 0.5109,-0.4135 0.6239,-0.6904 0.1949,-0.4779 -0.067,-0.7134 -0.2608,-1.1011 -0.0644,-0.2915 -0.3147,-0.4086 -0.2615,-0.7392 0.0181,-0.1131 0.0474,-0.256 0.0838,-0.3639 0.0474,-0.1409 0.0466,-0.3077 0.0466,-0.4572 l 0,-0.5155 -27.9887,0 z m 35.4571,0 c 0.0567,0.3509 0.0749,1.0991 -0.4563,0.7695 -0.2708,-0.1679 0.0694,0.943 0.0745,1.0637 0.0317,0.7468 -0.2054,1.1215 -0.4749,1.7915 -0.1253,0.3114 -0.4095,0.5747 -0.6704,0.7745 -0.2347,0.1796 -0.27,0.6476 -0.27,0.9237 -0.0373,0.4638 0.0559,0.9449 0.0559,1.4183 0,0.3351 -0.3425,0.4403 -0.4563,0.7558 -0.3048,0.8455 -0.0577,1.8941 -1.2384,1.8941 -0.0372,0.1506 -0.1303,0.3649 -0.1303,0.5225 0,0.3211 0.2891,0.0753 0.1769,0.6158 -0.0886,0.4272 0.0939,0.8142 0.1304,1.213 -0.0665,1.0898 0.8997,0.464 1.4525,0.3546 0.8722,-0.1725 0.3746,0.3805 0.5307,0.8677 0.2584,0.8066 0.7473,1.4504 0.419,2.3607 -0.1593,0.442 -0.3411,0.8221 -0.2793,1.3063 0.0389,0.3046 -0.2567,0.7845 -0.3538,1.101 0.1499,0.4511 0.0843,0.8395 0.3538,1.269 0.4585,0.731 1.2515,0.257 1.825,0 0.5785,-0.2591 0.8705,0.1493 1.3781,0.1493 0.0047,-0.0144 -3e-4,-0.0094 0.0186,-0.0094 l 0.0093,-0.0093 c 0,-0.2568 -0.2935,-0.7015 -0.3911,-0.9424 -0.2503,-0.6179 -0.1772,-0.8191 -0.0465,-1.4742 0.1335,-0.4289 0.2793,-0.6176 0.2793,-1.1104 0,-0.6451 -0.1423,-1.26 -0.121,-1.9128 0.0095,-0.2902 0.0971,-0.6139 0.1396,-0.9051 0.053,-0.3634 -0.0511,-0.7118 -0.121,-1.0636 0.0349,-0.614 -1.0023,-1.2808 -0.028,-1.6422 l 1.434,-0.5319 c 0.3957,-0.1468 0.4731,-0.0659 0.6797,0.2426 0.3729,0.5571 0.105,1.1205 -0.2049,1.6142 -0.1324,0.2108 -0.4039,0.3477 -0.391,0.6252 0.0183,0.3953 0.2427,0.5543 0.5214,0.8024 0.5989,0.4072 1.0738,1.0711 1.8436,1.1663 0.0539,0.2192 -0.1276,0.5489 -0.2235,0.7651 -0.2395,0.5401 -0.196,1.3501 0.3352,1.6796 0.2097,0.1301 0.9503,0.3869 1.1826,0.3732 0.269,-0.0158 0.408,-1.3385 1.1918,-1.4649 0.166,-0.0268 1.0478,-0.1078 1.1546,-0.028 0,0.3575 -0.2402,0.5432 -0.5866,0.6251 -0.5504,0.1303 -0.6487,0.5287 -0.7728,1.0264 0,0.3443 0.0374,0.6122 -0.0187,0.9611 -0.079,0.4917 0.1803,0.4434 0.5494,0.4292 0.6354,-0.0244 0.4788,0.879 0.9311,0.9797 0.5449,0.1212 0.7534,-0.766 1.257,-0.8491 0.2814,-0.0465 0.5092,-0.2392 0.2328,-0.4572 -0.217,-0.1713 -0.6884,-0.8216 -0.5307,-1.1197 0.1194,-0.2255 0.6156,-0.3576 0.7262,-0.6904 0.1224,-0.3685 -0.4571,-1.2609 -0.9311,-0.8771 -0.3319,0.2686 -0.1375,0.9306 -0.3166,1.1756 -0.2804,0.3837 -0.1192,0.4147 -0.1769,0.7745 -0.0294,0.1831 -0.2459,0.5087 -0.4562,0.4852 -0.2527,-0.0282 0.2129,-1.0931 0.2421,-1.213 0.0764,-0.3137 0.0782,-0.9441 0.2234,-1.1943 0.1673,-0.3039 0.5709,-0.8235 0.2701,-1.101 -0.5741,-0.5299 -1.2582,-1.1117 -1.7599,-1.6982 -0.9718,-1.1358 0.8194,-1.1188 0.8194,-1.6516 -0.2274,0 -1.76,-1.3547 -1.825,-1.5488 -0.2207,-0.4599 -0.5604,-0.9717 -0.941,-1.299 -0.2763,-0.2375 -0.5548,-0.3722 -0.8194,-0.6531 -0.3037,-0.3226 0.2944,-0.2219 0.6145,-0.28 0.2746,-0.0499 0.6202,-0.6656 0.8194,-0.8771 0.416,-0.4419 1.1311,-0.3916 1.6667,-0.8677 0.4014,-0.3569 1.5008,-1.9859 2.1323,-1.7916 0.2833,0.0872 0.3819,0.4061 0.596,0.5319 0.2858,0.1681 0.3538,-0.4357 0.3538,-0.5972 -0.0598,-0.3398 -0.1875,-0.5902 -0.2607,-0.8864 -0.0197,-0.0039 -0.0201,-0.0028 -0.028,-0.0187 -0.8472,-0.1199 -1.244,0.1311 -1.9926,0.4946 -0.4527,0.2199 -1.2732,-0.0596 -1.5922,0.2612 -0.3348,0.3365 -0.7907,0.5805 -1.285,0.5599 -0.321,-0.0133 -0.4497,-0.2351 -0.6145,-0.4572 -0.1923,-0.2594 -0.6785,0.5952 -0.838,0.7931 -0.4677,0.58 -0.6148,1.0963 -1.4619,1.0544 -0.5706,-0.2199 -0.96,0.1101 -1.1081,-0.6625 -0.0769,-0.4017 -0.0531,-0.6388 -0.4935,-0.7465 -0.7963,-0.1946 -0.8652,-0.7219 -1.108,-1.4556 -0.2709,-0.8184 0.0723,-1.3533 0.2328,-2.1181 l 0,-0.3662 -1.0794,0 z m 7.5973,1.4952 c -0.2683,0 -0.487,0.1362 -0.6984,0.2613 -0.1945,0.1152 -0.434,0.2021 -0.5866,0.3826 -0.0711,0.084 -0.1779,0.2426 0.0187,0.2426 0.2549,0 0.5298,-0.1152 0.7355,-0.2613 0.1772,-0.126 0.7027,-0.2986 0.7543,-0.5319 L 97.7906,11.4952 z M 68.4889,33.1911 c -0.5204,0.2284 -1.4574,0.0609 -2.0019,-0.0466 -0.6876,-0.1358 -1.3157,0.0976 -2.0485,-0.1026 -0.3856,-0.1054 -0.7132,-0.4023 -1.1173,-0.4852 -0.3686,-0.0755 -1.1933,-0.0071 -1.4526,-0.1587 -0.2041,-0.1194 -0.1868,-0.396 -0.4004,-0.5505 -0.2694,-0.1947 -0.5864,-0.057 -0.8752,-0.1213 -0.9362,0.3459 -0.5142,1.0985 -1.1267,1.6142 -0.2321,0.1955 -1.7906,-0.2329 -2.1695,-0.2799 -0.8888,-0.1102 -3.2281,0.445 -3.7338,-0.5692 -0.8162,-0.8162 -0.3713,-1.9295 -1.8995,-1.2503 -0.4837,0.2149 -0.5481,-0.2266 -0.9218,-0.3545 -0.4656,-0.1595 -0.9638,-0.0256 -1.2663,-0.5319 -0.3981,-0.6666 -0.946,-0.0465 -1.4525,0.112 -0.7067,0.7959 -2.8884,-1.3892 -3.3428,-0.0747 -0.4527,1.3098 -0.9331,2.2281 -2.3371,2.5753 l 0,0.0373 1.0894,0.252 c 0.4023,0.093 0.7713,-0.0094 1.1732,-0.0094 0.5908,0 0.9298,0.5506 1.6295,0.4479 1.0405,-0.1528 -0.317,0.6918 0.1769,1.2317 0.3482,0.3808 1.0377,0.2332 1.4991,0.2332 0.724,0 1.2855,0.2646 1.9647,0.3359 0.7185,0.1578 1.4409,0.6672 2.2067,0.8398 0.5746,0.1294 1.1691,-0.2799 1.7692,-0.2799 2.5209,0 4.1001,0.1984 6.313,1.4929 0.4173,0.3163 1.0189,0.3639 1.5363,0.3639 0.4605,0 0.9093,0.1937 1.3781,0.2052 0.6684,0.0165 1.4076,-0.3415 2.0764,-0.0186 0.5887,0.2841 1.4895,0.428 2.0577,0.0653 0.2614,0.1495 0.9534,-0.3422 1.4526,-0.1026 0.8558,0.4106 1.481,0.6599 2.4116,0.8211 0.2615,0.0453 0.6705,0.013 0.8287,0.2519 0.1613,0.2437 0.5521,0.4105 0.8473,0.4105 0,-0.1687 -0.2975,-0.5636 -0.3352,-0.8304 -0.0501,-0.3549 -0.1219,-1.2755 -0.0186,-1.6142 0.0736,-0.2416 0.2831,-0.9652 -0.0931,-0.9797 -0.5331,-0.0205 -1.0097,-0.1949 -1.5457,-0.1773 -1.0277,0.0337 -1.9523,0.2584 -2.933,-0.2333 -0.9382,-0.4703 -0.1254,-1.0697 0.5307,-1.185 0.5948,-0.1046 1.0159,0.2005 1.6667,-0.028 0.217,-0.0762 2.0778,-0.7555 1.5736,-1.2036 -0.3704,-0.3293 -1.9824,-0.286 -2.4675,-0.2053 l -0.6424,0.1026 z m 6.015,4.2548 c -0.4509,0.1208 -0.7442,0.0278 -1.1825,-0.056 -0.232,-0.0444 -0.5703,-0.2612 -0.7635,-0.2612 -0.0599,0.2972 0.0988,0.5662 0.2234,0.8304 0.2006,0.4254 0.6043,0.3664 0.9777,0.4759 0.3576,0.1048 1.0379,0.3842 1.0056,0.8211 -0.0079,0.1071 -0.1111,0.3031 -0.0559,0.3825 0.0267,0.0383 0.3429,0.1854 0.3911,0.1307 0.0818,-0.0931 0.0171,-0.3401 0.0838,-0.4666 0.2304,-0.4371 1.467,-0.5323 1.4991,-1.1103 0.0044,-0.0796 -0.6334,-0.6415 -0.7356,-0.7091 -0.3708,-0.245 -0.4511,-0.2071 -0.8938,-0.1773 l -0.5494,0.1399 z m 3.9573,2.4353 C 78.2045,39.9327 77.8,39.9517 77.558,39.8532 77.4566,39.812 77.2747,39.7516 77.1948,39.676 c -0.2234,-0.2117 0.143,-0.1662 0.2701,-0.1866 0.3747,-0.06 0.2828,-0.4233 0.3165,-0.7185 0.0436,-0.3813 0.2446,-0.7116 0.5587,-0.9424 0.1897,0.0122 0.3024,-0.1586 0.5121,-0.1586 0.2195,0 0.6839,0.1658 0.838,0.3079 0.4516,0.4168 -0.1438,0.8597 -0.2141,1.2969 -0.0268,0.1673 0.0436,0.2885 0.0279,0.4293 -0.0291,0.2617 -0.5121,0.2497 -0.7076,0.2985 l -0.3352,-0.1213 z m 9.6091,-0.6531 c 0.1028,0.276 -0.9429,0.4292 -1.1173,0.4292 -0.3788,0 -1.0439,0.3653 -1.3688,0.1026 -0.122,-0.0987 -0.0461,-0.5397 -0.1862,-0.5038 -0.2447,0.0629 -0.6605,0.5636 -1.0149,0.6905 -1.2172,0.4357 -5.1498,1.6187 -3.9014,-1.0637 0.3948,-0.8485 2.0936,-0.5785 2.7468,-0.1867 0.3102,0.1861 0.1287,0.6182 0.4376,0.6998 0.4596,0.1213 1.0871,-0.3647 1.5643,-0.4852 -0.4438,-0.1469 -0.8826,-0.488 -1.3781,-0.6158 -0.256,-0.0661 -1.8025,-0.7931 -0.7914,-0.7931 0.4207,0 0.7739,-0.2426 1.1732,-0.2426 0.2622,0 0.4663,0.3884 0.6145,0.3359 0.4839,-0.1322 0.4719,0.2584 0.8008,0.3359 0.5005,0.1179 1.18,-0.1378 1.6202,0.0467 0.5279,0.2214 0.5699,0.381 0.7449,0.9051 l 0.0558,0.3452 z m 9.6557,0.3079 c -0.8433,0.3706 -1.2381,0.1734 -2.0577,0.2613 -0.8794,0.0944 -1.4187,0.2187 -2.3185,0.1026 -1.3747,-0.1773 -2.8038,0.1765 -3.9666,-0.7558 0.026,-0.1054 0.5814,-0.2146 0.717,-0.2799 0.3141,-0.1511 0.4826,-0.2834 0.7449,-0.5039 0.6978,-0.5865 1.1303,-0.5279 1.9926,-0.3639 0.4469,0.1296 0.889,0.1784 1.3221,0.3359 0.3348,0.1218 0.6054,0.2908 0.9591,0.3919 0.5,0.143 1.1502,-0.1049 1.6574,-0.1772 0.5115,-0.073 0.7305,0.1467 1.1732,0.3172 0.1838,0.0845 0.3617,0.103 0.5587,0.0653 0.0493,-0.0094 0.1085,0.008 0.1583,0 0.0521,-0.0083 0.215,-0.0388 0.2234,0.0373 0.0076,0.0685 -0.1,0.1175 -0.1489,0.14 -0.0664,0.0307 -0.141,0.0579 -0.2049,0.0933 -0.0816,0.0453 -0.1926,0.0535 -0.2607,0.1026 -0.086,0.0619 -0.1974,0.1091 -0.298,0.14 L 97.726,39.536 z m 9.0878,-2.0901 c -0.644,0.0672 -1.0922,-0.1362 -1.7412,0.1213 -0.2798,0.1109 -0.5772,0.2436 -0.8753,0.2893 -0.1321,0.0203 -0.9691,0.0667 -0.9963,0.1773 0.3226,0.2575 0.8597,0.6194 1.285,0.6345 0.3642,0.013 0.6119,-0.2065 0.9311,-0.3173 0.3958,-0.1373 0.8581,-0.1026 1.2756,-0.1026 0.5264,0 0.775,-0.2014 0.4563,-0.6812 l -0.3352,-0.1213 z M 91.59,42.0366 c -0.1737,0 -0.5923,-0.1086 -0.717,-0.2239 -0.1713,-0.1586 -0.2067,-0.4299 -0.4563,-0.4945 -0.2036,-0.0526 -0.3915,0.1772 -0.6331,0.1772 -0.3909,0 -2.5353,-0.0635 -2.4302,0.6532 0.1271,0.8672 1.8901,0.6002 2.4581,0.9424 1.1794,0.7108 1.7042,1.8333 3.2682,1.1663 0.8217,-0.3505 0.3187,-0.9282 -0.0465,-1.4369 -0.3028,-0.4216 -1.2209,-0.2165 -1.406,-0.6345 L 91.59,42.0366 z m 9.9909,3.1911 c -0.0164,0.0088 -0.0387,0.0238 -0.0559,0.028 -0.0805,0.3257 -0.7825,0.6546 -1.0801,0.7278 -0.1544,0.038 -0.3134,0.0613 -0.4656,0.1026 -0.195,0.0528 0.0066,0.5559 0.0652,0.6812 0.1352,0.2885 0.3742,-0.0348 0.5308,-0.1307 0.1521,-0.0933 0.3113,-0.2002 0.4469,-0.3172 0.122,-0.1051 0.2259,-0.184 0.3724,-0.2426 0.2221,-0.0887 0.6965,-0.6723 0.3632,-0.8398 l -0.1769,-0.0093 z m 8.1193,-8.5655 c 0.0396,-0.3183 0.259,-0.6868 0.596,-0.7558 0.3009,-0.0617 0.4617,0.0839 0.7448,0.0839 0.2922,0 0.6023,-0.3305 0.9219,-0.3918 0.2326,-0.0447 0.6139,0.1497 0.838,0.2332 -0.0438,0.0881 -0.3163,0.2239 -0.4097,0.3266 -0.1621,0.1785 -0.2667,0.4978 -0.4749,0.5972 -0.2412,0.1153 -0.4444,-0.0274 -0.6704,-0.1027 -0.4814,-0.1603 -1.0724,0.4197 -1.5177,0.2986 l -0.028,-0.2892 z m 6.2944,0.6718 c 0.4213,-0.1248 0.7213,-0.1341 1.1453,-0.0374 0.167,0.0381 0.2975,0.0923 0.4376,0.1867 0.0695,0.0467 0.2391,0.2479 0.2793,0.2612 l 0,0.0187 c -0.1664,0.055 -0.2592,0.018 -0.4469,-0.0373 -0.1968,-0.0579 -0.6779,-0.0449 -0.8752,0.0186 -0.2531,0.0816 -0.766,0.088 -0.9125,-0.1773 l 0.3724,-0.2332 z m 6.9555,-0.7931 c -0.0883,-0.2144 -0.2577,-0.2865 -0.4656,-0.3359 -0.1524,-0.0363 -0.2732,0.0325 -0.3911,0.1119 -0.1295,0.0871 0.0824,0.3324 0.1304,0.4479 0.045,0.108 0.104,0.179 0.1862,0.2613 0.1242,0.1246 0.3718,-0.0231 0.4842,-0.1027 l 0.0559,-0.3825 z M 102.5399,16.0134 c -0.2288,-0.33 -0.0483,-0.9954 -0.4004,-1.1757 -0.3542,-0.1815 -0.6832,0.4493 -0.8287,0.0373 -0.2246,-0.6364 -1.0131,-0.4061 -1.2663,0.0747 -0.1173,0.2227 -0.2527,0.7961 0.2328,0.5878 0.2851,-0.1222 0.5397,-0.3079 0.8566,-0.3079 0.0317,0.1283 -0.0255,0.2298 -0.0186,0.3639 0.006,0.117 0.0479,0.2463 0.0745,0.3546 0.174,0.043 0.5031,-0.7553 0.7635,-0.28 0.1114,0.2032 0.0566,0.8579 0.4656,0.5972 l 0.121,-0.2519 z m 2.3464,1.3996 0,-0.7931 c -0.1237,-0.1556 0.0596,-0.4729 0.2049,-0.5412 0.2327,-0.1093 1.2288,0.2237 1.527,0.2706 0.9576,0.1506 1.8885,0.3974 2.8772,0.2986 0.732,-0.0731 1.595,-0.1378 2.3092,-0.0374 0.0166,0.0167 0.0247,0.0299 0.0372,0.0467 l 0,0.0466 c -0.4057,0.4079 -2.4238,0.4634 -2.9982,0.4293 -0.5648,-0.0336 -1.0557,-0.3266 -1.6108,-0.3266 -0.53,0 -0.9726,0.2775 -1.4526,0.3452 l -0.0279,0.028 c -0.0466,0.0057 -0.0571,0.0467 -0.1024,0.0467 -0.0189,0.015 -0.0232,0.0175 -0.0373,0.0373 -0.1507,0.0376 -0.2342,0.2398 -0.419,0.2706 l -0.3073,-0.1213 z m 8.1753,3.3217 c -0.4654,0.022 -2.514,-0.0786 -2.7375,0.3452 -0.3066,0.5816 0.5764,1.1852 1.0056,1.4556 0.4507,0.2841 0.6323,0.7952 1.2104,0.8771 0.5301,0.075 0.7588,-0.0607 1.1546,-0.3639 0.2194,-0.1682 1.4928,-0.802 0.6984,-1.1103 -0.2648,-0.1028 -0.5955,-0.1876 -0.6518,-0.4852 -0.0685,-0.3625 -0.1225,-0.4632 -0.4376,-0.6998 l -0.2421,-0.0187 z m 4.7952,1.4742 c -0.1941,0.0197 -0.3974,0.0404 -0.5866,0.0747 -0.2532,0.0459 -0.4694,0.0452 -0.5959,0.2986 -0.0506,0.1016 -0.1033,0.3085 -0.0279,0.4105 0.15,0.2032 0.6529,0.1202 0.8194,-0.0373 0.094,-0.089 0.1627,-0.1606 0.2421,-0.2613 l 0.1396,-0.1772 c 0.0614,-0.078 0.1073,-0.173 0.1769,-0.2426 l -0.1676,-0.0654 z m 6.8438,-1.8008 c -0.455,-0.0299 -1.3213,0.1414 -1.704,-0.1399 -0.4836,-0.3553 -0.8483,-0.4509 -1.4432,-0.4013 -0.2578,0.0215 -0.4596,0.3729 -0.689,0.336 -0.1994,-0.032 -0.2539,-0.1946 -0.447,-0.2053 -0.7755,0.143 -1.6,0.1003 -2.3836,0.0746 -0.5882,-0.0193 -0.8369,0.3941 -1.2384,0.7745 -0.1616,0.153 -0.4315,1.1662 -0.1397,1.0543 0.3532,-0.1356 0.6521,-0.8349 1.0894,-0.6158 0.6107,0.3059 0.4412,0.9967 0.9591,1.2037 0.297,0.1188 0.7435,-0.8408 1.0056,-1.0917 0.3411,-0.3263 0.3652,0.1995 0.7076,0.3266 0.316,0.1174 1.3285,0.4909 1.4898,0.2519 0.4489,-0.6654 1.2136,-0.1708 1.7226,0.1493 0.5351,0.1594 0.9764,0.6101 1.4712,0.8677 l 0.9497,0.4945 c 0.1401,0.0728 0.0745,-0.0322 0.0745,-0.1306 0,-0.6019 0.4429,-0.9778 -0.27,-1.4276 -0.4706,-0.2968 -0.4872,-0.8549 -0.8101,-1.2876 l -0.3445,-0.2333 z m -7.7656,-4.8799 c -0.3444,-0.276 -0.9721,-0.8001 -1.4525,-0.4852 -0.2332,0.1529 -0.5281,0.4975 -0.5401,0.8118 -0.0116,0.3015 0.0651,0.5073 0.4377,0.4665 0.492,-0.054 0.8534,-0.0556 1.3408,0.0093 0.1607,0.0213 0.4253,0.0329 0.568,-0.0466 0.2751,-0.1535 -0.076,-0.4355 -0.2049,-0.5412 l -0.149,-0.2146 z m -0.6517,-2.5473 c -0.1839,0.115 -0.5612,0.1576 -0.596,-0.1493 -0.0386,-0.3408 0.1738,-0.7205 -0.1769,-0.9984 -0.1783,-0.1414 -0.4977,0.0554 -0.6983,-0.0839 -0.1577,-0.1096 -0.2416,-0.261 -0.4097,-0.3733 -0.1206,-0.0806 -0.2542,-0.0746 -0.4004,-0.0746 -0.2578,0 -0.0322,0.5708 0,0.7091 0.0612,0.2631 0.3833,0.3325 0.6145,0.4106 l 0,0.028 c -0.2664,0.1332 -0.3116,0.4788 -0.2607,0.7371 0.203,0.04 0.6171,-0.2118 0.7542,-0.0747 0.2595,0.2595 0.5551,0.3418 0.9312,0.3919 0.3866,0.0514 0.8633,-0.095 0.4283,-0.5318 l -0.1862,0.0093 z M 115.9387,10 c 0,0.3109 0.007,0.5201 -0.0465,0.8162 -0.0572,0.316 -0.0848,0.5237 0.1117,0.8024 0.1269,0.1798 0.4239,0.3179 0.5866,0.4946 0.2458,0.2672 0.0858,0.6026 0.5121,0.7651 0.3269,0.1245 0.338,0.3778 0.5308,0.6065 0.0338,0.04 0.1402,0.1679 0.1955,0.1679 0.068,0 -0.113,-0.6448 -0.1583,-0.7464 -0.329,-0.7387 -1.0056,-1.3243 -1.0056,-2.1927 L 116.7488,10 l -0.8101,0 z m 8.9109,6.6759 c -0.1995,-0.5326 -0.4522,-1.117 -1.0801,-0.6719 -0.133,0.0943 -0.2737,0.187 -0.3818,0.308 -0.1601,0.1794 -0.6744,0.2437 -0.7542,0.4758 -0.0458,0.1331 0.4423,0.2968 0.54,0.3359 0.3128,0.125 0.6071,0.3042 0.9498,0.3359 0.4872,0.045 0.7005,0.1544 0.8287,-0.4572 l -0.1024,-0.3265 z m 0.3258,-4.8893 c -0.3592,-0.0671 -1.2558,-0.4294 -1.1359,-0.9144 0.3174,-0.0459 0.7294,0.0064 1.0615,0.0373 0.5668,0.0529 1.1358,-0.2747 1.6946,-0.168 0.3749,0.0716 1.0708,0.5647 1.0708,0.9611 -0.3472,0.29 -0.9472,0.099 -1.3967,0.2426 -0.4283,0.1367 -0.6777,0.4175 -1.108,0.1026 l -0.1863,-0.2612 z m 11.6204,20.6488 c -0.1259,-0.2534 -0.0769,-1.4087 0.0466,-1.6329 0.2314,-0.4198 0.8497,-0.2752 0.7728,-0.7838 -0.0299,-0.1977 -0.2517,-0.3114 -0.2886,-0.5038 -0.0364,-0.1904 0.6271,-0.1888 0.6517,-0.6998 0.0158,-0.3279 0.4058,-0.5828 0.6798,-0.7185 0.2465,-0.1222 0.5753,1.3413 0.6331,1.5302 0.1438,0.4703 -0.1108,0.9405 -0.1303,1.3996 -0.0241,0.5698 -0.0188,1.5565 -0.419,1.9875 -0.3679,0.3964 -0.4488,0.6811 -1.0801,0.6811 -0.4708,0 -0.7163,-0.3801 -0.866,-0.7931 l 0,-0.4665 z m -9.7674,4.2361 c -0.2159,-0.247 -0.7893,-0.5903 -0.4004,-0.8304 0.3771,-0.2329 0.6925,-0.4091 0.9963,-0.7372 0.4467,-0.4826 0.6515,-0.8568 1.3222,-0.961 0.2619,-0.0407 0.5191,-0.1592 0.7821,-0.196 0.6352,-0.0891 0.2516,0.2365 -0.0465,0.3546 -0.4026,0.1594 -0.6511,0.2757 -0.7915,0.6998 -0.1714,0.518 -0.3989,0.8999 -0.6983,1.3436 -0.2182,0.3235 -0.304,0.901 -0.8194,0.6625 l -0.3445,-0.3359 z m 17.0208,-19.7344 c -0.5381,0 -1.1267,-0.4083 -1.676,-0.5132 -0.2437,-0.0466 -0.4363,-0.0466 -0.689,-0.0466 -0.1128,0 -0.7059,-0.1794 -0.5587,-0.3266 0.1651,-0.1651 1.3585,0.0336 1.6202,0.0653 0.7569,0.0919 1.6148,0.4201 2.3743,0.3266 0.1223,-0.015 0.6514,-0.0202 0.3539,0.1866 -0.217,0.1507 -0.8108,0.3192 -1.0708,0.3452 l -0.3539,-0.0373 z m -0.4283,-2.5473 c -0.1829,0.2448 -0.5768,0.1673 -0.7914,0.028 -0.2684,-0.1741 -0.3628,-0.2376 -0.4656,-0.5598 -0.1475,-0.4626 -0.6653,2e-4 -0.9404,-0.4479 -0.0659,-0.1073 -0.2514,-0.445 -0.2514,-0.5598 0,-0.2145 0.9038,0.278 1.0056,0.3359 0.4919,0.2796 1.0065,0.3446 1.5177,0.5318 0.3255,0.1191 0.7985,0.4833 0.2328,0.6718 l -0.3073,0 z m -36.8436,25.5443 0.2641,0.1448 c 0.1767,0.0183 0.4508,0.0636 0.6052,0.1493 0.3661,0.203 -0.2492,0.5735 -0.3492,0.7045 -0.2107,0.2761 0.0419,0.7617 0.1216,1.0853 l 0,0 c -0.4323,0.4995 -1.0127,0.9178 -1.4619,1.4369 -0.6687,0.7726 -0.807,0.6971 -1.7412,0.8211 -0.4163,0.0553 -0.8524,0.4063 -1.2942,0.5038 -0.5292,0.1167 -1.0126,-0.2208 -1.4991,-0.3172 0,-0.5046 1.5531,-0.1118 1.3222,-1.101 -0.2667,-1.143 0.4662,-1.3149 1.0708,-2.0528 1.1382,-0.6519 2.1759,-0.5554 2.9617,-1.3747 l 0,0 z m 52.6777,-20.6902 0.0695,11.9074 c -0.0854,0.4123 -0.8409,0.9642 -0.6518,1.4147 0.0912,0.2171 0.2339,0.3724 0.3538,0.5598 0.1589,0.2481 0.1732,0.4748 0.2328,0.7745 l 0.0296,6.6394 0,0 c -0.8512,-0.3999 -1.9465,-1.5594 -2.4692,-2.1514 -0.2002,-0.1755 -0.979,-1.0325 -1.2104,-0.9704 -0.7243,0.1942 -1.1517,0.2326 -1.8902,0.2053 -0.5231,-0.0194 -0.7033,0.3764 -1.1453,0.5319 -0.716,0.2518 -1.194,0.1119 -1.9274,0.1119 -0.6174,0 -1.8217,0.1417 -2.3464,-0.1586 0,-0.8368 1.0474,-2.5572 1.7505,-2.9578 0.2712,-0.1544 1.0493,-0.2213 1.1825,-0.3919 0.2155,-0.2761 -0.3508,-1.3021 -0.149,-1.8288 0.2797,-0.6524 -0.7584,-1.9263 -1.0242,-2.5473 -0.3895,-0.9103 -1.2497,-1.7434 -2.0578,-2.286 -0.5341,-0.3587 -1.2677,-0.3531 -1.7505,-0.7371 -1.1415,-0.5291 -2.5542,-1.5786 -3.7803,-1.7729 -1.1217,-0.1777 -2.4776,-0.0148 -3.3427,-0.849 -0.3819,-0.2555 -0.7047,-0.5703 -1.0522,-0.8025 -0.3252,-0.2174 -1.1426,0.2067 -1.406,-0.1773 -0.267,-0.3891 0.1284,-0.371 -0.4935,-0.4945 -0.4097,-0.0813 -0.4389,-0.7364 -0.9404,-0.6998 -0.9052,0.066 -0.421,1.1914 -1.0801,1.213 -0.3449,0.0113 -0.7615,0.3266 -0.987,0.3266 -0.2584,0 -0.4709,-0.5474 -0.6052,-0.7372 -0.2866,-0.4052 -0.5881,-0.6574 0.0279,-0.8024 0.4945,-0.1163 -0.542,-1.0776 -0.6145,-1.2503 -0.1147,-0.1723 -0.7047,-0.7776 -0.9032,-0.8304 -0.1893,-0.0504 -1.267,-0.1857 -1.3129,-0.2986 -0.0527,-0.1298 -0.0323,-0.4753 0.121,-0.5132 0.2901,-0.0719 0.5106,-0.2494 0.7729,-0.3172 0.3905,-0.1009 0.9318,0.0283 1.3222,0.0933 0.8114,0.1351 0.9352,-0.6947 1.5736,-0.9051 0.2997,-0.0987 0.8621,0.0497 1.108,-0.1213 0.3353,-0.2333 -1.918,-0.2678 -2.1602,-0.2146 -1.6285,0.3579 -2.5087,-0.3719 -3.3986,-1.6329 -0.3186,-0.7692 -1.053,-0.3407 -1.555,-0.4945 -0.5473,-0.1678 -0.3275,-0.7058 -1.0428,-0.8864 -0.3998,-0.101 -0.6704,-0.075 -0.6704,-0.5879 0,-0.4023 -0.1583,-0.735 -0.1583,-1.0916 0.2125,-0.2136 1.2299,0.4028 1.378,0.6624 0.1261,0 0.394,-0.6584 0.4656,-0.8024 0.2757,-0.555 0.7533,-0.2538 1.2198,-0.2986 0.3967,-0.038 0.7876,-0.214 1.0708,-0.4852 0.5141,-0.4921 0.6978,-0.4828 1.3035,-0.7371 0.4665,-0.0449 1.0916,-0.0416 1.5178,0.1493 0.6641,0.2976 1.4688,1.2107 2.216,1.101 0.4037,-0.0592 0.8688,-0.112 1.2757,-0.112 0.1138,0 0.6424,0.5382 0.6424,0.6345 -0.04,0.0402 -0.1474,0.0833 -0.2048,0.112 -0.1012,0.7198 0.6256,0.6809 0.6797,1.1197 0.2311,0.1984 -0.1095,1.1685 -0.2328,1.3809 -0.2533,0.8685 -0.3955,1.2912 0.0931,2.1367 0.1645,0.2848 0.3135,0.4841 0.4283,0.8025 0.0895,0.2485 0.3908,0.5204 0.4563,0.7184 l 0.0279,0 c 0.0617,-0.2496 -0.1613,-1.1352 0.1583,-1.2409 0.1901,0.7689 0.5663,1.3314 0.987,2.034 0.3899,0.4378 0.9773,1.4644 1.7691,1.1477 0.7026,-0.2809 1.1306,-1.1982 1.6481,-1.7168 l 1.136,-1.1384 c 0.2868,-0.2874 0.2296,-0.8706 0.5028,-1.0917 0.1659,-0.1344 1.3739,-0.1185 1.7226,-0.2519 0.8598,-0.3292 0.219,-0.7099 0.7728,-1.3156 0.6889,-0.1724 1.155,-0.4457 1.7319,-0.8584 0.6096,-0.4362 0.4005,-0.4664 0.9404,0 0.679,0.5864 1.4291,0.7021 2.1974,1.073 0.7023,0.3389 1.5778,0.9194 2.2906,1.157 0.7675,0.0929 1.1101,0.5574 1.7691,0.7185 0.5433,0.1327 1.1165,0.027 1.6667,0.1493 0.3874,0.086 0.6972,0.3229 1.0522,0.4758 0.285,0.1227 0.5911,0.1613 0.8989,0.2074 l 0,0 z"
   id="path26"
   inkscape:connector-curvature="0"
   style="fill:#eee0e6;stroke:#000000;stroke-width:0.1" />
  <path
   class="fil2 str0"
   d="m 106.777,39.9341 c 0.1813,-0.1891 0.3493,-0.427 0.502,-0.734 0.3058,-0.6151 4.0871,-0.7432 4.9163,-0.9237 0.2657,0 0.5577,-0.0174 0.8194,-0.056 0.3151,-0.0464 0.6165,-0.1213 0.9405,-0.1213 0.0913,0 0.5959,0.013 0.5959,0.1306 0.0661,0.0218 -0.2639,0.3159 -0.3632,0.3919 -0.3063,0.2348 -0.6519,0.3696 -0.9683,0.5878 l -0.3259,0.3453 c -0.3306,0.1033 -0.6999,0.3374 -0.9684,0.5598 -0.2986,0.2472 -0.7291,0.3046 -1.0894,0.4385 -0.7536,0.2803 -1.5564,0.1923 -2.2626,0.6345 -0.3974,0.2489 -0.7455,0.6124 -1.1546,0.8305 l 0,0 c -0.0797,-0.3236 -0.3323,-0.8092 -0.1216,-1.0853 0.1,-0.131 0.7153,-0.5015 0.3492,-0.7045 -0.1544,-0.0857 -0.4285,-0.131 -0.6052,-0.1493 l -0.2641,-0.1448 0,0 z"
   id="path28"
   inkscape:connector-curvature="0"
   style="fill:#cbe3ff;stroke:#000000;stroke-width:0.1" />
  <path
   class="fil5 str1"
   d="m 152.643,135.568 c 0.6858,-0.4721 1.5884,-0.699 1.2849,-1.7642 -0.0786,-0.2762 -0.1419,-0.5339 0,-0.8025 0.2193,-0.4151 0.618,-0.0877 0.866,-0.3172 0.1409,-0.1304 0.1468,-0.1726 0.1396,-0.3639 -0.0109,-0.2873 0.1962,-0.5265 0.2701,-0.7931 0.0962,-0.3473 -0.307,-0.8269 -0.2887,-1.325 0.0107,-0.2899 0.23,-1.4779 0.7542,-0.9517 0.4426,0.4443 0.6609,0.2248 1.1546,0.3826 0.3478,0.1111 1.1332,2.2034 1.5364,0.5318 0.1284,-0.5324 0.2818,-1.4022 1.0056,-1.0823 0.3803,0.168 0.5911,0.3831 0.9311,0.5785 0.5637,0.3241 1.0526,0.028 1.7132,0.028 0.2156,0 0.315,-0.065 0.3734,-0.1673 0.0585,-0.1024 0.0766,-0.2426 0.1295,-0.3926 0.1418,-0.4021 0.6031,-0.6924 0.9683,-0.8771 0.3388,-0.1713 1.4023,-0.9612 0.987,-1.4369 -0.3574,-0.4094 -0.8146,-0.7252 -0.5959,-1.3343 0.2458,-0.6847 -0.0328,-1.6394 0.2328,-2.3047 0.1623,-0.4068 0.5362,-0.6323 0.8752,-0.877 0.4972,-0.3589 0.587,-0.6423 0.9125,-1.129 0.2106,-0.315 0.3751,-0.4737 0.7356,-0.5879 0.6681,-0.2117 0.8141,-1.2095 1.527,-1.2876 0.7487,-0.0821 0.6533,-0.096 1.0336,-0.6905 0.5729,-0.8956 1.3956,-0.4285 1.9646,-0.9424 0.2733,-0.2468 0.371,-0.526 0.5494,-0.8397 0.1946,-0.3422 0.764,-0.8223 1.1267,-0.9891 0.255,-0.1173 0.5002,-0.3821 0.8287,-0.4759 0.6825,-0.1949 1.1007,-0.7607 1.6387,-1.2223 0.7219,-0.6194 2.1199,-1.0815 3.0634,-0.7837 0.3931,0.124 0.6976,0.4648 1.0894,0.6344 0.6204,0.2685 1.4773,0.188 2.095,-0.0653 0.5106,-0.2094 0.9322,-0.1159 1.406,-0.4199 0.388,-0.249 0.7152,-0.7823 1.0243,-1.129 0.2303,-0.2583 0.4846,-0.4983 0.6518,-0.8024 0.2195,-0.3992 0.1944,-0.8139 0.4655,-1.213 0.3141,-0.4626 0.8501,-0.8028 1.2105,-1.2316 0.6086,-0.7242 1.0533,-0.7653 1.9088,-0.7372 0.5802,0.019 1.1264,-0.0951 1.7039,0.028 0.4012,0.0855 1.3388,0.9135 1.6295,1.2223 0.2324,0.2469 0.2705,0.7023 0.3259,1.0264 0.0356,0.2084 0.3727,0.9444 0.4748,1.0917 0.1652,0.2383 0.1007,0.5256 0.2235,0.7931 0.205,0.4464 0.7235,0.4665 1.1546,0.4665"
   id="path30"
   inkscape:connector-curvature="0"
   style="fill:none;stroke:#003399;stroke-width:0.2" />
  <path
   class="fil5 str1"
   d="m 162.384,129.522 c 0.158,0.0402 0.3393,0.0288 0.474,0.1206 0.3728,0.2542 0.6035,0.2252 0.81,0.7185 0.1679,0.4013 0.4023,1.7408 0.8846,1.8194 0.3385,0.0551 0.3261,-1.0624 0.9497,-0.5505 0.343,0.2816 0.8563,0.3915 1.3473,0.354 0.3698,-0.0282 0.7274,-0.1405 0.9899,-0.326 0.3776,-0.2667 0.4277,-1.1511 0.9776,-1.2596 0.3441,-0.0679 1.2024,0.5307 1.5364,0.6531 1.2387,0.4541 2.2655,-0.1493 3.5103,-0.1493 1.0403,0 1.9139,0.9867 2.9982,0.7652 0.3476,-0.071 0.4183,-0.057 0.6425,0.2332 0.3332,0.4313 0.8836,0.229 1.1918,0.5692 0.1492,0.1647 0.0497,0.4922 0.1304,0.6905 0.1621,0.3982 0.6022,0.4436 0.9777,0.3919"
   id="path32"
   inkscape:connector-curvature="0"
   style="fill:none;stroke:#003399;stroke-width:0.2" />
  <path
   class="fil5 str1"
   d="m 166.85,131.984 c 0.0506,0.3299 0.061,0.6686 0.1519,0.9897 0.4275,1.5099 2.6305,2.0297 3.4544,3.247 0.4867,0.7191 1.4966,2.4012 2.0112,0.6718 0.1547,-0.5201 0.7757,-0.3724 1.1732,-0.4105 0.7541,-0.0723 0.7148,0.2643 1.3502,0.4012 0.4833,0.1042 0.8952,0.27 1.3873,0.1306 0.3736,-0.1058 0.8427,-0.1631 1.136,0.1307 0.2354,0.2358 0.4586,0.3639 0.8008,0.3639 0.4523,0 0.7108,-0.555 1.1452,-0.3546 0.4664,0.2152 1.0397,-0.2359 1.5271,-0.3266"
   id="path34"
   inkscape:connector-curvature="0"
   style="fill:none;stroke:#003399;stroke-width:0.2" />
  <path
   class="fil5 str1"
   d="m 163.659,27.938 c -0.1755,0.2288 -0.4859,0.1077 -0.6052,0.4012 -0.2282,0.561 0.1814,1.0823 0.0559,1.6515 -0.101,0.4585 -0.3259,0.7656 -0.3259,1.269 0,0.7862 0.3447,1.7112 0.1862,2.4913 -0.1721,0.8468 -1.3273,1.2003 -2.0205,1.4742 -0.5139,0.203 -0.3104,0.7558 0.1676,0.8398 0.3707,0.0651 0.9144,0.1469 1.1266,0.5038 0.1571,0.2642 0.1831,0.5324 0.3725,0.8025 0.7524,1.0727 1.9412,0.3522 2.8958,0.7558 0.2575,0.1088 0.5524,0.087 0.8287,0.1306"
   id="path36"
   inkscape:connector-curvature="0"
   style="fill:none;stroke:#003399;stroke-width:0.2" />
  <path
   class="fil5 str1"
   d="m 161.48,27.742 c -0.3074,-0.3962 -0.3637,-0.8814 -0.8939,-1.0263 -0.4073,-0.1113 -1.2174,-0.4122 -1.0801,-0.9798 0.2161,-0.8929 0.0553,-2.6223 1.4805,-2.146 0.6889,0.2302 0.9073,1.1069 1.7226,1.0917 0.2827,-0.0053 0.5462,-0.1978 0.8287,-0.1773 0.4949,0.036 0.6927,0.4356 1.2663,0.1866 0.5591,-0.2427 1.0982,-0.7783 1.676,-0.2519 0.6517,0.5937 1.7768,0.1932 2.4954,-0.1307 0.8176,-0.3685 1.5394,-0.9206 2.3092,-1.3809"
   id="path38"
   inkscape:connector-curvature="0"
   style="fill:none;stroke:#003399;stroke-width:0.2" />
  <path
   class="fil5 str1"
   d="m 101.767,67.458 c -0.0803,0.2354 0.5061,1.4606 0.6145,1.7682 0.0899,0.2553 0.9771,1.4891 1.1919,1.5489 0.6062,0.169 0.9028,-0.341 1.4246,0.3639 2.0983,2.8341 4.2334,-0.3229 5.866,-1.9688 0.1633,-0.1647 0.3566,-0.2725 0.5959,-0.3639 0.3995,-0.1526 0.6164,-0.0573 1.0057,0.0094 0.6364,0.1092 1.3048,0.0652 1.797,-0.3733"
   id="path40"
   inkscape:connector-curvature="0"
   style="fill:none;stroke:#003399;stroke-width:0.2" />
  <path
   class="fil5 str1"
   d="m 133.965,60.8473 c 0.1209,-0.6058 0.7136,-1.0092 1.2943,-0.8305 1.1185,0.3442 1.3384,-1.1561 2.4581,-0.7931 0.4541,0.1472 0.8183,0.4509 1.3129,0.5319 0.6234,0.1022 1.2063,-0.1327 1.8157,-0.196 0.1482,-0.0153 0.2981,10e-5 0.4472,10e-5"
   id="path42"
   inkscape:connector-curvature="0"
   style="fill:none;stroke:#003399;stroke-width:0.2" />
  <path
   class="fil5 str1"
   d="m 69.2808,11.6933 c -0.0437,0.0255 -0.0916,0.029 -0.0931,0.056 -0.0251,0.4261 -1.1623,1.8493 -0.0373,2.0154 0.7555,0.1115 1.4978,0.25 1.3595,1.1943 -0.2256,1.5399 0.4127,2.0221 1.1173,3.2471 0.3479,0.6049 -0.226,2.6584 -0.3166,3.3964 -0.0302,0.246 -0.0782,0.4896 -0.1173,0.7344"
   id="path44"
   inkscape:connector-curvature="0"
   style="fill:none;stroke:#003399;stroke-width:0.2" />
  <path
   class="fil5 str1"
   d="m 71.3106,21.6025 c 0.8584,-0.3935 1.3649,-1.7335 1.9926,-2.4447 0.8073,-0.9149 0.5587,-0.6726 0.5587,-1.8475 0,-1.2183 0.9783,-3.0124 0.2048,-4.1055 -0.3144,-0.4444 -1.1677,-0.029 -1.6015,-0.1119 -0.9088,-0.1736 -1.1732,-1.0755 -1.1732,-1.8662"
   id="path46"
   inkscape:connector-curvature="0"
   style="fill:none;stroke:#003399;stroke-width:0.2" />
  <path
   class="fil5 str1"
   d="m 76.2828,10 c 0,0.6331 0.1901,1.2838 0.8194,1.5626 0.3438,0.1523 1.2518,-0.0746 1.676,-0.0746 0.5117,0 1.1379,0.4416 1.4153,0.8584 0.2576,0.387 -0.3976,1.3733 -0.2235,1.8848 0.1139,0.3348 0.3118,0.635 0.4678,0.9525"
   id="path48"
   inkscape:connector-curvature="0"
   style="fill:none;stroke:#003399;stroke-width:0.2" />
  <path
   class="fil5 str1"
   d="m 33.824,21.6211 c -0.2228,0.3226 0.1779,0.8373 0.4469,1.0077 0.5534,0.3505 0.8158,-0.2406 1.1918,-0.4665 0.1983,-0.1191 0.7407,-0.0267 0.8008,-0.2613 0.146,-0.569 -0.4899,-1.7288 0.5587,-1.9034 0.654,-0.1089 1.3623,0.9144 2.2533,0.9144 1.86,0 1.6638,-1.0203 2.4022,-2.2767 0.1428,-0.2429 0.3346,-0.4536 0.5019,-0.6805"
   id="path50"
   inkscape:connector-curvature="0"
   style="fill:none;stroke:#003399;stroke-width:0.2" />
  <polygon
   class="fil6 str2"
   points="16.1877,177.485 37.6191,177.485 37.6191,193.414 16.1877,193.414 "
   id="polygon52"
   style="fill:#ffffff;fill-opacity:0.50196078;fill-rule:nonzero;stroke:#000000;stroke-width:0.1;stroke-opacity:0.50196078" />
  <path
   class="fil7"
   d="m 12.3642,192.42 c 0,-0.1745 0.0447,-0.3448 0.1341,-0.5113 0.0898,-0.166 0.2178,-0.2958 0.3848,-0.3885 0.1665,-0.0927 0.3405,-0.1392 0.5216,-0.1392 0.1792,0 0.3514,0.0456 0.5165,0.1373 0.1655,0.0913 0.2939,0.2197 0.3852,0.3843 0.0917,0.1651 0.1373,0.3373 0.1373,0.5174 0,0.1802 -0.0456,0.3528 -0.1373,0.5174 -0.0913,0.1651 -0.2197,0.2935 -0.3852,0.3852 -0.1651,0.0922 -0.3373,0.1379 -0.5165,0.1379 -0.1811,0 -0.3551,-0.0466 -0.5216,-0.1397 -0.167,-0.0932 -0.295,-0.223 -0.3848,-0.3895 -0.0894,-0.166 -0.1341,-0.3368 -0.1341,-0.5113 z m 0.1722,0 c 0,0.1463 0.0376,0.2884 0.1124,0.4266 0.0748,0.1383 0.182,0.2465 0.3208,0.3246 0.1392,0.0781 0.2841,0.1171 0.4351,0.1171 0.1496,0 0.293,-0.0386 0.4304,-0.1152 0.1373,-0.0767 0.2446,-0.1839 0.3212,-0.3218 0.0767,-0.1378 0.1153,-0.2812 0.1153,-0.4313 0,-0.1496 -0.0386,-0.2935 -0.1153,-0.4313 -0.0766,-0.1378 -0.1839,-0.2446 -0.3212,-0.3208 -0.1374,-0.0762 -0.2808,-0.1143 -0.4304,-0.1143 -0.151,0 -0.2959,0.0386 -0.4351,0.1162 -0.1388,0.0776 -0.246,0.1858 -0.3208,0.3245 -0.0748,0.1388 -0.1124,0.2808 -0.1124,0.4257 z m 1.0362,-0.3335 0.0499,-0.1693 c 0.1147,0.0277 0.2065,0.0861 0.2747,0.1754 0.0686,0.0899 0.1025,0.1985 0.1025,0.326 0,0.1618 -0.0522,0.293 -0.1571,0.3942 -0.1044,0.1011 -0.2498,0.1519 -0.4351,0.1519 -0.1213,0 -0.2267,-0.023 -0.3165,-0.0691 -0.0894,-0.0461 -0.1571,-0.1115 -0.2023,-0.1962 -0.0456,-0.0851 -0.0682,-0.1825 -0.0682,-0.2916 0,-0.1223 0.0292,-0.2239 0.0875,-0.3048 0.0583,-0.0804 0.1373,-0.1359 0.2375,-0.1651 l 0.04,0.1641 c -0.0682,0.0273 -0.1199,0.0683 -0.1566,0.1219 -0.0363,0.0536 -0.0541,0.1166 -0.0541,0.1895 0,0.1054 0.0376,0.1924 0.1129,0.2611 0.0752,0.0682 0.1834,0.1025 0.3236,0.1025 0.1406,0 0.2469,-0.0324 0.3194,-0.0969 0.0719,-0.0649 0.1081,-0.1486 0.1081,-0.2516 0,-0.0828 -0.024,-0.1552 -0.0719,-0.2178 -0.0475,-0.0626 -0.1124,-0.1039 -0.1943,-0.1242 z"
   id="path54"
   inkscape:connector-curvature="0"
   style="fill:#000000;fill-rule:nonzero" />
  <path
   id="1"
   class="fil7"
   d="m 14.4188,189.466 -0.1849,0 c 0.1454,0.0927 0.2178,0.2291 0.2178,0.4093 0,0.1166 -0.032,0.2238 -0.0964,0.3217 -0.064,0.0978 -0.1538,0.1735 -0.2695,0.2276 -0.1153,0.0537 -0.2474,0.0805 -0.3975,0.0805 -0.1458,0 -0.2784,-0.0245 -0.3974,-0.0729 -0.119,-0.049 -0.2103,-0.1219 -0.2733,-0.2192 -0.0635,-0.0974 -0.0955,-0.2065 -0.0955,-0.3269 0,-0.088 0.0188,-0.1665 0.056,-0.2352 0.0371,-0.0692 0.0856,-0.1251 0.1453,-0.1684 l -0.7248,0 0,-0.2465 2.0202,0 0,0.23 z m -0.7305,0.7841 c 0.1877,0 0.3279,-0.0395 0.4205,-0.1185 0.0927,-0.079 0.1393,-0.1722 0.1393,-0.2799 0,-0.1081 -0.0447,-0.2003 -0.1332,-0.2761 -0.0884,-0.0757 -0.2239,-0.1138 -0.4059,-0.1138 -0.2004,0 -0.3471,0.0386 -0.4407,0.1157 -0.0941,0.0772 -0.1407,0.1722 -0.1407,0.2855 0,0.1101 0.0452,0.2023 0.135,0.2761 0.0899,0.0739 0.2319,0.111 0.4257,0.111 z"
   inkscape:connector-curvature="0"
   style="fill:#000000;fill-rule:nonzero" />
  <polygon
   id="12"
   class="fil7"
   points="13.8125,188.942 13.5632,188.942 13.5632,188.18 13.8125,188.18 "
   style="fill:#000000;fill-rule:nonzero" />
  <path
   id="123"
   class="fil7"
   d="m 14.4188,187.905 -1.4633,0 0,-0.2215 0.2051,0 c -0.0715,-0.0461 -0.1294,-0.1073 -0.1727,-0.1835 -0.0437,-0.0762 -0.0658,-0.1632 -0.0658,-0.2605 0,-0.1082 0.0226,-0.1971 0.0677,-0.2663 0.0452,-0.0696 0.1077,-0.1185 0.1886,-0.1467 -0.1707,-0.1162 -0.2563,-0.2667 -0.2563,-0.452 0,-0.1454 0.0404,-0.2569 0.1209,-0.3349 0.0804,-0.0781 0.2041,-0.1172 0.3711,-0.1172 l 1.0047,0 0,0.2465 -0.9219,0 c -0.0993,0 -0.1708,0.008 -0.2145,0.024 -0.0433,0.0165 -0.0786,0.0456 -0.1054,0.0875 -0.0263,0.0423 -0.0399,0.0922 -0.0399,0.1491 0,0.103 0.0343,0.1881 0.103,0.2563 0.0682,0.0678 0.1778,0.1021 0.3283,0.1021 l 0.8504,0 0,0.2479 -0.9506,0 c -0.1105,0 -0.1933,0.0202 -0.2484,0.0607 -0.055,0.0404 -0.0827,0.1063 -0.0827,0.1985 0,0.0696 0.0183,0.134 0.0555,0.1933 0.0366,0.0593 0.0903,0.1025 0.1608,0.1289 0.071,0.0268 0.1731,0.04 0.3062,0.04 l 0.7592,0 0,0.2478 z"
   inkscape:connector-curvature="0"
   style="fill:#000000;fill-rule:nonzero" />
  <path
   id="1234"
   class="fil7"
   d="m 14.2382,184.6 c 0.0781,0.0922 0.1331,0.1806 0.1655,0.2653 0.032,0.0851 0.048,0.1764 0.048,0.2737 0,0.1609 -0.039,0.2841 -0.1176,0.3707 -0.0785,0.0861 -0.1792,0.1293 -0.301,0.1293 -0.072,0 -0.1373,-0.016 -0.1966,-0.0489 -0.0593,-0.0324 -0.1068,-0.0752 -0.1425,-0.1279 -0.0358,-0.0532 -0.0631,-0.1124 -0.0814,-0.1788 -0.0127,-0.0484 -0.0254,-0.1218 -0.0372,-0.2201 -0.024,-0.2004 -0.0522,-0.3481 -0.0856,-0.4426 -0.0338,-0.001 -0.0555,-0.001 -0.0644,-0.001 -0.1011,0 -0.1726,0.0235 -0.2136,0.0705 -0.0564,0.0631 -0.0842,0.1576 -0.0842,0.2823 0,0.1166 0.0203,0.2027 0.0612,0.2587 0.0409,0.0555 0.1133,0.0964 0.2173,0.1232 l -0.0334,0.2422 c -0.1035,-0.0221 -0.1877,-0.0583 -0.2512,-0.1086 -0.0639,-0.0504 -0.1133,-0.1237 -0.1477,-0.2192 -0.0343,-0.0955 -0.0517,-0.206 -0.0517,-0.3321 0,-0.1251 0.015,-0.2262 0.0442,-0.3043 0.0296,-0.0781 0.0663,-0.1355 0.111,-0.1726 0.0447,-0.0367 0.1007,-0.0621 0.1689,-0.0772 0.0423,-0.008 0.1185,-0.0122 0.2286,-0.0122 l 0.3306,0 c 0.231,0 0.3768,-0.005 0.4375,-0.016 0.0611,-0.0104 0.1199,-0.0315 0.1759,-0.0626 l 0,0.2592 c -0.0513,0.0254 -0.1115,0.0423 -0.1806,0.0494 z m -0.5541,0.0207 c 0.0371,0.0903 0.0682,0.2253 0.0941,0.405 0.0145,0.102 0.031,0.1745 0.0493,0.2163 0.0184,0.0424 0.0452,0.0753 0.081,0.0979 0.0352,0.023 0.0743,0.0348 0.1175,0.0348 0.0664,0 0.1214,-0.0254 0.1656,-0.0753 0.0438,-0.0498 0.0659,-0.1232 0.0659,-0.2196 0,-0.0955 -0.0207,-0.1807 -0.0626,-0.255 -0.0419,-0.0743 -0.0992,-0.1293 -0.1717,-0.1641 -0.056,-0.0268 -0.1387,-0.04 -0.2479,-0.04 l -0.0912,0 z"
   inkscape:connector-curvature="0"
   style="fill:#000000;fill-rule:nonzero" />
  <path
   id="12345"
   class="fil7"
   d="m 14.9795,183.985 -2.024,0 0,-0.2257 0.19,0 c -0.0743,-0.0532 -0.1303,-0.1134 -0.1674,-0.1807 -0.0372,-0.0668 -0.056,-0.1481 -0.056,-0.2436 0,-0.1251 0.0324,-0.2352 0.0964,-0.3307 0.0645,-0.0959 0.1552,-0.1679 0.2724,-0.2163 0.1171,-0.049 0.2455,-0.0734 0.3852,-0.0734 0.1496,0 0.2846,0.0268 0.4045,0.0809 0.1199,0.0536 0.2117,0.1317 0.2756,0.2342 0.0635,0.1026 0.0955,0.2103 0.0955,0.3232 0,0.0827 -0.0174,0.1566 -0.0522,0.2224 -0.0348,0.0659 -0.079,0.1195 -0.1322,0.1619 l 0.7122,0 0,0.2478 z m -1.2841,-0.2243 c 0.1881,0 0.3274,-0.0381 0.4177,-0.1143 0.0898,-0.0762 0.135,-0.1689 0.135,-0.2771 0,-0.11 -0.0466,-0.2046 -0.1402,-0.2831 -0.0931,-0.0786 -0.2375,-0.1181 -0.4332,-0.1181 -0.1868,0 -0.326,0.0386 -0.4191,0.1152 -0.0927,0.0767 -0.1392,0.1684 -0.1392,0.2747 0,0.1059 0.0493,0.1995 0.1481,0.2808 0.0988,0.0814 0.2427,0.1219 0.4309,0.1219 z"
   inkscape:connector-curvature="0"
   style="fill:#000000;fill-rule:nonzero" />
  <path
   id="123456"
   class="fil7"
   d="m 13.9818,182.515 -0.0385,-0.2451 c 0.0983,-0.0136 0.1735,-0.0522 0.2262,-0.1152 0.0522,-0.0626 0.0786,-0.1505 0.0786,-0.2639 0,-0.1138 -0.0236,-0.1985 -0.0697,-0.2535 -0.0465,-0.0551 -0.1011,-0.0828 -0.1632,-0.0828 -0.0564,0 -0.1002,0.0245 -0.1326,0.0734 -0.0221,0.0338 -0.0499,0.1185 -0.0837,0.2535 -0.0461,0.1816 -0.0857,0.3081 -0.1195,0.3782 -0.0334,0.0701 -0.08,0.1237 -0.1392,0.1599 -0.0593,0.0362 -0.1247,0.0546 -0.1962,0.0546 -0.0654,0 -0.1256,-0.0151 -0.1811,-0.0452 -0.056,-0.0296 -0.102,-0.0705 -0.1387,-0.1218 -0.0283,-0.0386 -0.0527,-0.0913 -0.0725,-0.1576 -0.0197,-0.0668 -0.0296,-0.1383 -0.0296,-0.2145 0,-0.1147 0.0169,-0.2154 0.0499,-0.3024 0.0329,-0.087 0.0776,-0.151 0.134,-0.1924 0.0569,-0.0414 0.1322,-0.0696 0.2267,-0.0851 l 0.0334,0.2422 c -0.0752,0.0113 -0.134,0.0433 -0.1764,0.096 -0.0423,0.0526 -0.0635,0.1274 -0.0635,0.2238 0,0.1139 0.0188,0.1952 0.0565,0.2437 0.0376,0.0489 0.0818,0.0734 0.1321,0.0734 0.0325,0 0.0612,-0.0104 0.0871,-0.0306 0.0268,-0.0202 0.0484,-0.0517 0.0663,-0.095 0.0089,-0.0249 0.0301,-0.0979 0.063,-0.2192 0.0471,-0.1755 0.0852,-0.2977 0.1153,-0.3669 0.0296,-0.0696 0.0733,-0.1242 0.1302,-0.1637 0.057,-0.0395 0.1275,-0.0592 0.2122,-0.0592 0.0828,0 0.1604,0.0244 0.2338,0.0724 0.0729,0.0484 0.1293,0.1181 0.1693,0.2088 0.04,0.0908 0.0597,0.1938 0.0597,0.3086 0,0.1905 -0.0395,0.3354 -0.1185,0.4351 -0.079,0.0997 -0.1961,0.1632 -0.3514,0.1905 z"
   inkscape:connector-curvature="0"
   style="fill:#000000;fill-rule:nonzero" />
  <polygon
   id="1234567"
   class="fil7"
   points="14.4188,180.934 14.1361,180.934 14.1361,180.652 14.4188,180.652 "
   style="fill:#000000;fill-rule:nonzero" />
  <path
   id="12345678"
   class="fil7"
   d="m 13.8826,179.265 0.032,-0.2437 c 0.1679,0.0264 0.2996,0.0946 0.3946,0.2047 0.095,0.1095 0.1425,0.2445 0.1425,0.4045 0,0.1999 -0.0654,0.3612 -0.1961,0.4826 -0.1308,0.1218 -0.3185,0.1829 -0.563,0.1829 -0.1581,0 -0.2964,-0.0263 -0.4149,-0.0785 -0.1185,-0.0527 -0.2074,-0.1322 -0.2667,-0.2394 -0.0593,-0.1068 -0.0889,-0.2235 -0.0889,-0.349 0,-0.159 0.0404,-0.2893 0.1209,-0.39 0.0804,-0.1011 0.1942,-0.166 0.3424,-0.1947 l 0.0372,0.2413 c -0.0983,0.023 -0.1722,0.0635 -0.222,0.1218 -0.0494,0.0583 -0.0744,0.1289 -0.0744,0.2117 0,0.1251 0.0447,0.2267 0.1346,0.3048 0.0893,0.0781 0.2309,0.1171 0.4247,0.1171 0.1966,0 0.3396,-0.0376 0.429,-0.1134 0.0889,-0.0752 0.1336,-0.1735 0.1336,-0.2949 0,-0.0973 -0.0301,-0.1783 -0.0899,-0.2436 -0.0597,-0.0654 -0.1514,-0.1068 -0.2756,-0.1242 z"
   inkscape:connector-curvature="0"
   style="fill:#000000;fill-rule:nonzero" />
  <path
   id="123456789"
   class="fil7"
   d="m 13.6869,178.902 c -0.2709,0 -0.4718,-0.0753 -0.6021,-0.2262 -0.1081,-0.1256 -0.1627,-0.279 -0.1627,-0.4601 0,-0.2013 0.0658,-0.3659 0.198,-0.4934 0.1317,-0.1279 0.3138,-0.1914 0.5461,-0.1914 0.1886,0 0.3368,0.0282 0.4445,0.0846 0.1082,0.0565 0.1919,0.1388 0.2517,0.2465 0.0597,0.1082 0.0893,0.2258 0.0893,0.3537 0,0.2046 -0.0654,0.3702 -0.1971,0.4967 -0.1312,0.1266 -0.3203,0.1896 -0.5677,0.1896 z m 0,-0.2549 c 0.1877,0 0.3279,-0.041 0.421,-0.1228 0.0936,-0.0819 0.1402,-0.1849 0.1402,-0.3086 0,-0.1232 -0.0471,-0.2257 -0.1407,-0.3076 -0.0936,-0.0814 -0.2366,-0.1223 -0.4285,-0.1223 -0.1811,0 -0.3184,0.0409 -0.4116,0.1233 -0.0931,0.0823 -0.1397,0.1843 -0.1397,0.3066 0,0.1237 0.0466,0.2267 0.1393,0.3086 0.0926,0.0818 0.2328,0.1228 0.42,0.1228 z"
   inkscape:connector-curvature="0"
   style="fill:#000000;fill-rule:nonzero" />
  <path
   id="12345678910"
   class="fil7"
   d="m 14.4188,177.239 -1.4633,0 0,-0.2215 0.2051,0 c -0.0715,-0.0461 -0.1294,-0.1073 -0.1727,-0.1835 -0.0437,-0.0762 -0.0658,-0.1632 -0.0658,-0.2605 0,-0.1082 0.0226,-0.1971 0.0677,-0.2663 0.0452,-0.0696 0.1077,-0.1185 0.1886,-0.1467 -0.1707,-0.1162 -0.2563,-0.2667 -0.2563,-0.452 0,-0.1454 0.0404,-0.2569 0.1209,-0.3349 0.0804,-0.0781 0.2041,-0.1172 0.3711,-0.1172 l 1.0047,0 0,0.2465 -0.9219,0 c -0.0993,0 -0.1708,0.008 -0.2145,0.024 -0.0433,0.0165 -0.0786,0.0456 -0.1054,0.0875 -0.0263,0.0423 -0.0399,0.0922 -0.0399,0.1491 0,0.103 0.0343,0.1881 0.103,0.2563 0.0682,0.0678 0.1778,0.1021 0.3283,0.1021 l 0.8504,0 0,0.2479 -0.9506,0 c -0.1105,0 -0.1933,0.0202 -0.2484,0.0607 -0.055,0.0404 -0.0827,0.1063 -0.0827,0.1985 0,0.0696 0.0183,0.134 0.0555,0.1933 0.0366,0.0593 0.0903,0.1025 0.1608,0.1289 0.071,0.0268 0.1731,0.04 0.3062,0.04 l 0.7592,0 0,0.2478 z"
   inkscape:connector-curvature="0"
   style="fill:#000000;fill-rule:nonzero" />
  <g
   id="_319035616">
   <g
   id="g67">
    <polygon
   id="_319037224"
   class="fil8 str3"
   points="17.6247,183.495 21.381,183.495 21.381,184.487 17.6247,184.487 "
   style="fill:#c2c1c1;fill-rule:nonzero;stroke:#2f3133;stroke-width:0.1" />
    <polygon
   id="_319037800"
   class="fil9 str3"
   points="21.381,183.495 25.1373,183.495 25.1373,184.487 21.381,184.487 "
   style="fill:#ffffff;fill-rule:nonzero;stroke:#2f3133;stroke-width:0.1" />
    <polygon
   id="_319037584"
   class="fil8 str3"
   points="25.1373,183.495 28.8936,183.495 28.8936,184.487 25.1373,184.487 "
   style="fill:#c2c1c1;fill-rule:nonzero;stroke:#2f3133;stroke-width:0.1" />
    <polygon
   id="_319039048"
   class="fil9 str3"
   points="28.8944,183.495 32.6507,183.495 32.6507,184.487 28.8944,184.487 "
   style="fill:#ffffff;fill-rule:nonzero;stroke:#2f3133;stroke-width:0.1" />
    <polygon
   id="_319036552"
   class="fil8 str3"
   points="32.6508,183.495 36.4071,183.495 36.4071,184.487 32.6508,184.487 "
   style="fill:#c2c1c1;fill-rule:nonzero;stroke:#2f3133;stroke-width:0.1" />
    <polygon
   id="_319036096"
   class="fil9 str3"
   points="29.6534,186.484 35.6612,186.484 35.6612,187.476 29.6534,187.476 "
   style="fill:#ffffff;fill-rule:nonzero;stroke:#2f3133;stroke-width:0.1" />
    <polygon
   id="_319038616"
   class="fil8 str3"
   points="23.6456,186.484 29.6534,186.484 29.6534,187.476 23.6456,187.476 "
   style="fill:#c2c1c1;fill-rule:nonzero;stroke:#2f3133;stroke-width:0.1" />
    <polygon
   id="_319035496"
   class="fil9 str3"
   points="17.6379,186.484 23.6457,186.484 23.6457,187.476 17.6379,187.476 "
   style="fill:#ffffff;fill-rule:nonzero;stroke:#2f3133;stroke-width:0.1" />
   </g>
   <path
   id="_319035832"
   class="fil10"
   d="m 23.2008,179.361 -0.1347,0.2928 -0.7026,0 -0.1535,0.314 c 0.3046,0.0447 0.5457,0.1576 0.7232,0.3392 0.1529,0.1559 0.2293,0.3399 0.2293,0.551 0,0.1229 -0.0247,0.2369 -0.0746,0.341 -0.05,0.1047 -0.1129,0.1934 -0.1888,0.2669 -0.0758,0.0735 -0.1605,0.1329 -0.2534,0.1776 -0.1317,0.0635 -0.2675,0.0947 -0.4063,0.0947 -0.1405,0 -0.2422,-0.0236 -0.3057,-0.0712 -0.0641,-0.0476 -0.0959,-0.1005 -0.0959,-0.1576 0,-0.0323 0.0136,-0.0605 0.0394,-0.0852 0.0265,-0.0247 0.06,-0.0371 0.1,-0.0371 0.03,0 0.0564,0.004 0.0788,0.0136 0.0223,0.009 0.0605,0.0329 0.1146,0.0705 0.0859,0.06 0.1729,0.09 0.2617,0.09 0.134,0 0.2522,-0.0512 0.3539,-0.1529 0.1018,-0.1017 0.1523,-0.2252 0.1523,-0.371 0,-0.1411 -0.0453,-0.2728 -0.1358,-0.3951 -0.0911,-0.1223 -0.2158,-0.217 -0.3757,-0.2834 -0.1252,-0.0518 -0.2958,-0.0817 -0.5115,-0.09 l 0.448,-0.9078 0.8373,0 z"
   inkscape:connector-curvature="0"
   style="fill:#1f1a17;fill-rule:nonzero" />
   <path
   id="_3190358321"
   class="fil10"
   d="m 23.5606,180.543 c 0,-0.2663 0.04,-0.4956 0.1205,-0.6879 0.0806,-0.1923 0.187,-0.3357 0.3205,-0.4298 0.1034,-0.0747 0.2099,-0.1123 0.3204,-0.1123 0.1787,0 0.3399,0.0917 0.4821,0.274 0.1782,0.2264 0.267,0.5327 0.267,0.9202 0,0.271 -0.0388,0.5009 -0.117,0.6902 -0.0782,0.1899 -0.1776,0.3275 -0.2987,0.4128 -0.1211,0.0858 -0.2381,0.1282 -0.351,0.1282 -0.2223,0 -0.4081,-0.1312 -0.5562,-0.3946 -0.1253,-0.2216 -0.1876,-0.4886 -0.1876,-0.8008 z m 0.3375,0.0429 c 0,0.3217 0.0394,0.5845 0.1188,0.7873 0.0652,0.1711 0.1634,0.257 0.2928,0.257 0.0623,0 0.1264,-0.0283 0.1928,-0.0835 0.067,-0.0559 0.1176,-0.1494 0.1517,-0.2799 0.0529,-0.1975 0.0794,-0.4762 0.0794,-0.8355 0,-0.2663 -0.0277,-0.4886 -0.0829,-0.6667 -0.0412,-0.1323 -0.0947,-0.2258 -0.1599,-0.2811 -0.0471,-0.0376 -0.1041,-0.0564 -0.1706,-0.0564 -0.0782,0 -0.1475,0.0347 -0.2087,0.1046 -0.0823,0.0953 -0.1387,0.2452 -0.1687,0.4498 -0.03,0.2046 -0.0447,0.4057 -0.0447,0.6044 z"
   inkscape:connector-curvature="0"
   style="fill:#1f1a17;fill-rule:nonzero" />
   <path
   id="_31903583212"
   class="fil10"
   d="m 25.3245,180.543 c 0,-0.2663 0.04,-0.4956 0.1205,-0.6879 0.0806,-0.1923 0.187,-0.3357 0.3205,-0.4298 0.1034,-0.0747 0.2099,-0.1123 0.3204,-0.1123 0.1787,0 0.3399,0.0917 0.4821,0.274 0.1782,0.2264 0.267,0.5327 0.267,0.9202 0,0.271 -0.0388,0.5009 -0.117,0.6902 -0.0782,0.1899 -0.1776,0.3275 -0.2987,0.4128 -0.1211,0.0858 -0.2381,0.1282 -0.351,0.1282 -0.2223,0 -0.4081,-0.1312 -0.5562,-0.3946 -0.1253,-0.2216 -0.1876,-0.4886 -0.1876,-0.8008 z m 0.3375,0.0429 c 0,0.3217 0.0394,0.5845 0.1188,0.7873 0.0652,0.1711 0.1634,0.257 0.2928,0.257 0.0623,0 0.1264,-0.0283 0.1928,-0.0835 0.067,-0.0559 0.1176,-0.1494 0.1517,-0.2799 0.0529,-0.1975 0.0794,-0.4762 0.0794,-0.8355 0,-0.2663 -0.0277,-0.4886 -0.0829,-0.6667 -0.0412,-0.1323 -0.0947,-0.2258 -0.1599,-0.2811 -0.0471,-0.0376 -0.1041,-0.0564 -0.1706,-0.0564 -0.0782,0 -0.1475,0.0347 -0.2087,0.1046 -0.0823,0.0953 -0.1387,0.2452 -0.1687,0.4498 -0.03,0.2046 -0.0447,0.4057 -0.0447,0.6044 z"
   inkscape:connector-curvature="0"
   style="fill:#1f1a17;fill-rule:nonzero" />
   <path
   id="_319035832123"
   class="fil10"
   d="m 28.4196,179.247 0,1.5693 0.4016,-0.3651 c 0.0852,-0.0782 0.1346,-0.1276 0.1481,-0.1482 0.0095,-0.0141 0.0136,-0.0276 0.0136,-0.0411 0,-0.0236 -0.0094,-0.043 -0.0283,-0.06 -0.0188,-0.0165 -0.0499,-0.0259 -0.094,-0.0282 l 0,-0.0553 0.6855,0 0,0.0553 c -0.094,0.002 -0.1722,0.0164 -0.2346,0.0429 -0.0629,0.0264 -0.1317,0.0735 -0.2063,0.1417 l -0.4046,0.3733 0.4046,0.5116 c 0.1129,0.1417 0.1887,0.231 0.2275,0.2693 0.0553,0.0535 0.1035,0.0887 0.1446,0.1046 0.0289,0.0118 0.0788,0.0177 0.15,0.0177 l 0,0.0617 -0.7667,0 0,-0.0617 c 0.0441,-0.001 0.0735,-0.008 0.0888,-0.02 0.0158,-0.0124 0.0235,-0.0288 0.0235,-0.0512 0,-0.0264 -0.023,-0.0688 -0.0688,-0.127 l -0.4845,-0.6185 0,0.5233 c 0,0.1023 0.0076,0.1699 0.0218,0.2016 0.0141,0.0324 0.0346,0.0553 0.0611,0.0688 0.0265,0.0141 0.0841,0.0218 0.1723,0.023 l 0,0.0617 -0.8026,0 0,-0.0617 c 0.0805,0 0.1405,-0.01 0.1805,-0.0294 0.0241,-0.013 0.0429,-0.0324 0.0553,-0.0588 0.017,-0.0377 0.0258,-0.1035 0.0258,-0.1964 l 0,-1.4364 c 0,-0.1829 -0.0041,-0.2946 -0.0117,-0.3352 -0.0082,-0.0405 -0.0218,-0.0687 -0.04,-0.0846 -0.0182,-0.0153 -0.0423,-0.023 -0.0723,-0.023 -0.0241,0 -0.06,0.01 -0.1082,0.0294 l -0.0294,-0.0605 0.4686,-0.1929 0.0788,0 z"
   inkscape:connector-curvature="0"
   style="fill:#1f1a17;fill-rule:nonzero" />
   <path
   id="_3190358321234"
   class="fil10"
   d="m 30.1853,180.409 c 0.1152,-0.1153 0.1828,-0.1811 0.2034,-0.1982 0.0517,-0.0441 0.1076,-0.0776 0.167,-0.1017 0.06,-0.0241 0.1187,-0.0365 0.1775,-0.0365 0.0988,0 0.1841,0.0289 0.2552,0.0865 0.0712,0.057 0.1188,0.1405 0.1429,0.2499 0.1182,-0.1382 0.2181,-0.2288 0.2999,-0.2717 0.0811,-0.0429 0.1652,-0.0647 0.251,-0.0647 0.0841,0 0.1582,0.0218 0.2234,0.0647 0.0647,0.0429 0.1159,0.1135 0.1541,0.2111 0.0253,0.0664 0.0376,0.1711 0.0376,0.3134 l 0,0.6791 c 0,0.0988 0.0077,0.1664 0.0224,0.2028 0.0117,0.0253 0.0329,0.0471 0.0641,0.0647 0.0311,0.0177 0.0811,0.0271 0.1517,0.0271 l 0,0.0617 -0.7791,0 0,-0.0617 0.0329,0 c 0.0676,0 0.1206,-0.0136 0.1588,-0.04 0.0264,-0.0182 0.0452,-0.0476 0.0564,-0.0876 0.0047,-0.0194 0.0071,-0.0753 0.0071,-0.167 l 0,-0.6791 c 0,-0.1288 -0.0153,-0.2193 -0.0465,-0.2722 -0.0447,-0.0735 -0.1164,-0.11 -0.2152,-0.11 -0.0611,0 -0.1223,0.0153 -0.1834,0.0453 -0.0618,0.0306 -0.1358,0.087 -0.2234,0.1699 l -0.0036,0.0188 0.0036,0.0741 0,0.7532 c 0,0.1076 0.0064,0.1746 0.0182,0.2011 0.0123,0.0264 0.0347,0.0488 0.0682,0.0664 0.0329,0.0177 0.0899,0.0271 0.1705,0.0271 l 0,0.0617 -0.7979,0 0,-0.0617 c 0.0876,0 0.1476,-0.0106 0.1805,-0.0312 0.0324,-0.0206 0.0553,-0.0517 0.0676,-0.0929 0.0059,-0.02 0.0089,-0.0764 0.0089,-0.1705 l 0,-0.6791 c 0,-0.1288 -0.0188,-0.2211 -0.0571,-0.2769 -0.0505,-0.0735 -0.1211,-0.1106 -0.2116,-0.1106 -0.0624,0 -0.1235,0.0165 -0.1847,0.05 -0.0952,0.0506 -0.1687,0.1076 -0.2204,0.1705 l 0,0.8461 c 0,0.1029 0.0076,0.1705 0.0217,0.2011 0.0141,0.0311 0.0359,0.0547 0.0635,0.0699 0.0282,0.0153 0.0853,0.0236 0.1717,0.0236 l 0,0.0617 -0.7802,0 0,-0.0617 c 0.0723,0 0.1229,-0.008 0.1517,-0.0236 0.0282,-0.0152 0.0505,-0.0399 0.0652,-0.074 0.0147,-0.0341 0.0224,-0.0994 0.0224,-0.197 l 0,-0.6033 c 0,-0.1734 -0.0053,-0.2851 -0.0153,-0.3357 -0.0082,-0.0382 -0.0212,-0.0641 -0.0382,-0.0782 -0.0171,-0.0147 -0.0406,-0.0217 -0.0706,-0.0217 -0.0323,0 -0.0705,0.009 -0.1152,0.0258 l -0.0259,-0.0623 0.4751,-0.1929 0.0741,0 0,0.3364 z"
   inkscape:connector-curvature="0"
   style="fill:#1f1a17;fill-rule:nonzero" />
   <path
   id="_319039384"
   class="fil10"
   d="m 22.2823,189.503 c 0.0665,-0.157 0.1505,-0.2787 0.2523,-0.3639 0.1017,-0.0859 0.2281,-0.1288 0.3798,-0.1288 0.187,0 0.3304,0.0611 0.4304,0.1829 0.0758,0.0905 0.1141,0.1875 0.1141,0.291 0,0.1699 -0.1071,0.3457 -0.3205,0.5268 0.1435,0.0565 0.2517,0.137 0.3252,0.2417 0.0735,0.104 0.1105,0.2269 0.1105,0.3686 0,0.2017 -0.0641,0.3769 -0.1929,0.5251 -0.1675,0.1928 -0.4104,0.2893 -0.7285,0.2893 -0.1575,0 -0.2645,-0.0194 -0.3216,-0.0583 -0.0564,-0.0393 -0.0852,-0.0811 -0.0852,-0.1258 0,-0.0335 0.0135,-0.0629 0.0405,-0.0882 0.0271,-0.0253 0.0594,-0.0376 0.0976,-0.0376 0.0283,0 0.0577,0.005 0.0877,0.0135 0.0194,0.006 0.0635,0.0271 0.1328,0.0629 0.0688,0.0365 0.1165,0.0577 0.1429,0.0647 0.0423,0.0129 0.0876,0.0188 0.1358,0.0188 0.117,0 0.2193,-0.0452 0.3058,-0.1358 0.087,-0.0905 0.1299,-0.1981 0.1299,-0.3222 0,-0.0905 -0.02,-0.1793 -0.06,-0.2652 -0.0299,-0.0641 -0.0629,-0.1129 -0.0981,-0.1464 -0.0494,-0.0458 -0.1171,-0.0876 -0.2035,-0.1246 -0.0858,-0.0377 -0.174,-0.0565 -0.2634,-0.0565 l -0.0553,0 0,-0.0517 c 0.0906,-0.0112 0.1817,-0.0441 0.2729,-0.0982 0.0917,-0.0535 0.1581,-0.1188 0.1993,-0.1946 0.0411,-0.0759 0.0617,-0.1588 0.0617,-0.2493 0,-0.1188 -0.037,-0.214 -0.1111,-0.2869 -0.0741,-0.073 -0.1658,-0.1094 -0.2764,-0.1094 -0.1781,0 -0.3263,0.0952 -0.4462,0.2857 l -0.0565,-0.0276 z"
   inkscape:connector-curvature="0"
   style="fill:#1f1a17;fill-rule:nonzero" />
   <path
   id="_3190393841"
   class="fil10"
   d="m 23.9945,190.241 c 0,-0.2663 0.04,-0.4956 0.1205,-0.6879 0.0806,-0.1923 0.187,-0.3357 0.3205,-0.4298 0.1034,-0.0747 0.2099,-0.1123 0.3204,-0.1123 0.1787,0 0.3399,0.0917 0.4821,0.274 0.1782,0.2264 0.267,0.5327 0.267,0.9202 0,0.271 -0.0388,0.5009 -0.117,0.6902 -0.0782,0.1899 -0.1776,0.3275 -0.2987,0.4128 -0.1211,0.0858 -0.2381,0.1282 -0.351,0.1282 -0.2223,0 -0.4081,-0.1312 -0.5562,-0.3946 -0.1253,-0.2216 -0.1876,-0.4886 -0.1876,-0.8008 z m 0.3375,0.0429 c 0,0.3217 0.0394,0.5845 0.1188,0.7873 0.0652,0.1711 0.1634,0.257 0.2928,0.257 0.0623,0 0.1264,-0.0283 0.1928,-0.0835 0.067,-0.0559 0.1176,-0.1494 0.1517,-0.2799 0.0529,-0.1975 0.0794,-0.4762 0.0794,-0.8355 0,-0.2663 -0.0277,-0.4886 -0.0829,-0.6667 -0.0412,-0.1323 -0.0947,-0.2258 -0.1599,-0.2811 -0.0471,-0.0376 -0.1041,-0.0564 -0.1706,-0.0564 -0.0782,0 -0.1475,0.0347 -0.2087,0.1046 -0.0823,0.0953 -0.1387,0.2452 -0.1687,0.4498 -0.03,0.2046 -0.0447,0.4057 -0.0447,0.6044 z"
   inkscape:connector-curvature="0"
   style="fill:#1f1a17;fill-rule:nonzero" />
   <path
   id="_31903938412"
   class="fil10"
   d="m 25.7584,190.241 c 0,-0.2663 0.04,-0.4956 0.1205,-0.6879 0.0806,-0.1923 0.187,-0.3357 0.3205,-0.4298 0.1034,-0.0747 0.2099,-0.1123 0.3204,-0.1123 0.1787,0 0.3399,0.0917 0.4821,0.274 0.1782,0.2264 0.267,0.5327 0.267,0.9202 0,0.271 -0.0388,0.5009 -0.117,0.6902 -0.0782,0.1899 -0.1776,0.3275 -0.2987,0.4128 -0.1211,0.0858 -0.2381,0.1282 -0.351,0.1282 -0.2223,0 -0.4081,-0.1312 -0.5562,-0.3946 -0.1253,-0.2216 -0.1876,-0.4886 -0.1876,-0.8008 z m 0.3375,0.0429 c 0,0.3217 0.0394,0.5845 0.1188,0.7873 0.0652,0.1711 0.1634,0.257 0.2928,0.257 0.0623,0 0.1264,-0.0283 0.1928,-0.0835 0.067,-0.0559 0.1176,-0.1494 0.1517,-0.2799 0.0529,-0.1975 0.0794,-0.4762 0.0794,-0.8355 0,-0.2663 -0.0277,-0.4886 -0.0829,-0.6667 -0.0412,-0.1323 -0.0947,-0.2258 -0.1599,-0.2811 -0.0471,-0.0376 -0.1041,-0.0564 -0.1706,-0.0564 -0.0782,0 -0.1475,0.0347 -0.2087,0.1046 -0.0823,0.0953 -0.1387,0.2452 -0.1687,0.4498 -0.03,0.2046 -0.0447,0.4057 -0.0447,0.6044 z"
   inkscape:connector-curvature="0"
   style="fill:#1f1a17;fill-rule:nonzero" />
   <path
   id="_319039384123"
   class="fil10"
   d="m 28.8553,190.107 c 0.1152,-0.1153 0.1828,-0.1811 0.2034,-0.1982 0.0517,-0.0441 0.1076,-0.0776 0.167,-0.1017 0.06,-0.0241 0.1187,-0.0365 0.1775,-0.0365 0.0988,0 0.1841,0.0289 0.2552,0.0865 0.0712,0.057 0.1188,0.1405 0.1429,0.2499 0.1182,-0.1382 0.2181,-0.2288 0.2999,-0.2717 0.0811,-0.0429 0.1652,-0.0647 0.251,-0.0647 0.0841,0 0.1582,0.0218 0.2234,0.0647 0.0647,0.0429 0.1159,0.1135 0.1541,0.2111 0.0253,0.0664 0.0376,0.1711 0.0376,0.3134 l 0,0.6791 c 0,0.0988 0.0077,0.1664 0.0224,0.2028 0.0117,0.0253 0.0329,0.0471 0.0641,0.0647 0.0311,0.0177 0.0811,0.0271 0.1517,0.0271 l 0,0.0617 -0.7791,0 0,-0.0617 0.0329,0 c 0.0676,0 0.1206,-0.0136 0.1588,-0.04 0.0264,-0.0182 0.0452,-0.0476 0.0564,-0.0876 0.0047,-0.0194 0.0071,-0.0753 0.0071,-0.167 l 0,-0.6791 c 0,-0.1288 -0.0153,-0.2193 -0.0465,-0.2722 -0.0447,-0.0735 -0.1164,-0.11 -0.2152,-0.11 -0.0611,0 -0.1223,0.0153 -0.1834,0.0453 -0.0618,0.0306 -0.1358,0.087 -0.2234,0.1699 l -0.0036,0.0188 0.0036,0.0741 0,0.7532 c 0,0.1076 0.0064,0.1746 0.0182,0.2011 0.0123,0.0264 0.0347,0.0488 0.0682,0.0664 0.0329,0.0177 0.0899,0.0271 0.1705,0.0271 l 0,0.0617 -0.7979,0 0,-0.0617 c 0.0876,0 0.1476,-0.0106 0.1805,-0.0312 0.0324,-0.0206 0.0553,-0.0517 0.0676,-0.0929 0.0059,-0.02 0.0089,-0.0764 0.0089,-0.1705 l 0,-0.6791 c 0,-0.1288 -0.0188,-0.2211 -0.0571,-0.2769 -0.0505,-0.0735 -0.1211,-0.1106 -0.2116,-0.1106 -0.0624,0 -0.1235,0.0165 -0.1847,0.05 -0.0952,0.0506 -0.1687,0.1076 -0.2204,0.1705 l 0,0.8461 c 0,0.1029 0.0076,0.1705 0.0217,0.2011 0.0141,0.0311 0.0359,0.0547 0.0635,0.0699 0.0282,0.0153 0.0853,0.0236 0.1717,0.0236 l 0,0.0617 -0.7802,0 0,-0.0617 c 0.0723,0 0.1229,-0.008 0.1517,-0.0236 0.0282,-0.0152 0.0505,-0.0399 0.0652,-0.074 0.0147,-0.0341 0.0224,-0.0994 0.0224,-0.197 l 0,-0.6033 c 0,-0.1734 -0.0053,-0.2851 -0.0153,-0.3357 -0.0082,-0.0382 -0.0212,-0.0641 -0.0382,-0.0782 C 28.5007,190.007 28.4772,190 28.4472,190 c -0.0323,0 -0.0705,0.009 -0.1152,0.0258 l -0.0259,-0.0623 0.4751,-0.1929 0.0741,0 0,0.3364 z"
   inkscape:connector-curvature="0"
   style="fill:#1f1a17;fill-rule:nonzero" />
   <path
   id="_3190393841234"
   class="fil10"
   d="m 31.5322,188.945 c 0.0482,0 0.0894,0.0171 0.1235,0.0506 0.0335,0.0341 0.0506,0.0753 0.0506,0.1235 0,0.0482 -0.0171,0.0893 -0.0506,0.124 -0.0341,0.0341 -0.0753,0.0518 -0.1235,0.0518 -0.0482,0 -0.0893,-0.0177 -0.124,-0.0518 -0.0341,-0.0347 -0.0518,-0.0758 -0.0518,-0.124 0,-0.0482 0.0171,-0.0894 0.0512,-0.1235 0.0335,-0.0335 0.0752,-0.0506 0.1246,-0.0506 z m 0.1429,0.8249 0,1.2683 c 0,0.0988 0.0071,0.164 0.0218,0.197 0.0141,0.0329 0.0352,0.057 0.0635,0.0735 0.0282,0.0158 0.0799,0.0241 0.1546,0.0241 l 0,0.0617 -0.7667,0 0,-0.0617 c 0.077,0 0.1288,-0.008 0.1546,-0.023 0.0265,-0.0147 0.0476,-0.0394 0.0629,-0.0741 0.0159,-0.0341 0.0236,-0.0999 0.0236,-0.1975 l 0,-0.6086 c 0,-0.1711 -0.0053,-0.2816 -0.0153,-0.3322 -0.0083,-0.037 -0.0212,-0.0623 -0.0382,-0.0764 -0.0171,-0.0147 -0.0406,-0.0217 -0.0706,-0.0217 -0.0323,0 -0.0711,0.009 -0.117,0.0258 l -0.0241,-0.0623 0.4751,-0.1929 0.0758,0 z"
   inkscape:connector-curvature="0"
   style="fill:#1f1a17;fill-rule:nonzero" />
  </g>
  <rect
   class="fil5 str4"
   x="10"
   y="10"
   width="277"
   height="185.72099"
   id="rect87"
   style="fill:none;stroke:#000000;stroke-width:0.5" />
 </g>
</svg>