<svg xmlns="http://www.w3.org/2000/svg" xmlns:svg="http://www.w3.org/2000/svg" xmlns:xlink="http://www.w3.org/1999/xlink" id="svg2" width="96" height="96" version="1.0" style="display:inline"><defs id="defs4"><linearGradient id="linearGradient3651"><stop id="stop3653" offset="0" style="stop-color:#f3840c;stop-opacity:1"/><stop id="stop3655" offset="1" style="stop-color:#f9ba3f;stop-opacity:1"/></linearGradient><clipPath id="clipPath3688"><path id="path3690" d="M 3.4113583,5.2580561 5.4883859,18.339063 18.569393,16.262036 16.492365,3.1810285 3.4113583,5.2580561 z m 6.7107437,0.153619 2.163233,3.0663662 3.764593,-0.045316 -2.265566,3.0076027 1.212967,3.560141 L 11.434116,13.794646 8.4382447,16.041933 8.4887842,12.28117 5.4216097,10.120311 8.9965026,9.0002485 10.122102,5.4116751 z" style="fill:#f0f;fill-opacity:1;stroke:none;display:inline"/></clipPath><filter id="filter3692" color-interpolation-filters="sRGB"><feGaussianBlur id="feGaussianBlur3694" stdDeviation=".315"/></filter><linearGradient id="linearGradient2902" x1="10.735" x2="12.34" y1="5.314" y2="15.422" gradientUnits="userSpaceOnUse" xlink:href="#linearGradient3651"/><clipPath id="clipPath2921"><path id="path2923" d="M 2.7223567,4.7578745 4.988205,19.028064 19.258394,16.762216 16.992546,2.4920262 2.7223567,4.7578745 z m 7.3904543,0.655275 2.172524,3.0648911 3.754565,-0.048486 -2.24551,3.0139424 1.207584,3.556234 L 11.443407,13.79317 8.4328618,16.038025 8.4794936,12.282644 5.4115816,10.11714 9.0011477,8.9995102 10.112811,5.4131495 z" style="opacity:.3;color:#000;fill:#f0f;fill-opacity:1;fill-rule:nonzero;stroke:none;stroke-width:1;marker:none;visibility:visible;display:inline;overflow:visible;enable-background:accumulate"/></clipPath><filter id="filter3709" color-interpolation-filters="sRGB"><feGaussianBlur id="feGaussianBlur3711" stdDeviation=".157"/></filter></defs><metadata id="metadata7"/><g id="layer1" transform="translate(0,74)" style="display:inline"><path id="path2912" d="M 15,15 11.442463,13.793604 8.431842,16.040294 8.479853,12.284079 5.4127911,10.115073 9,9 l 1.115073,-3.5872089 2.169006,3.0670619 3.756215,-0.048011 -2.24669,3.0106211 z" clip-path="url(#clipPath2921)" transform="matrix(6.5618748,1.0419072,-1.0419072,6.5618748,-12.9065,-108.05702)" style="opacity:.2;color:#000;fill:none;stroke:#fff;stroke-width:.60203987;stroke-miterlimit:4;stroke-dasharray:none;marker:none;visibility:visible;display:inline;overflow:visible;filter:url(#filter3709);enable-background:accumulate"/><path id="path3679" d="M 15,15 11.442463,13.793604 8.431842,16.040294 8.479853,12.284079 5.4127911,10.115073 9,9 l 1.115073,-3.5872089 2.169006,3.0670619 3.756215,-0.048011 -2.24669,3.0106211 z" clip-path="url(#clipPath3688)" transform="matrix(6.5618748,1.0419072,-1.0419072,6.5618748,-12.9065,-108.05702)" style="opacity:.3;color:#000;fill:none;stroke:#fff;stroke-width:.15050997;stroke-miterlimit:4;stroke-dasharray:none;marker:none;visibility:visible;display:inline;overflow:visible;filter:url(#filter3692);enable-background:accumulate"/><path id="path3649" d="M 15,15 11.442463,13.793604 8.431842,16.040294 8.479853,12.284079 5.4127911,10.115073 9,9 l 1.115073,-3.5872089 2.169006,3.0670619 3.756215,-0.048011 -2.24669,3.0106211 z" transform="matrix(6.5618748,1.0419072,-1.0419072,6.5618748,-12.9065,-108.05702)" style="color:#000;fill:url(#linearGradient2902);fill-opacity:1;fill-rule:nonzero;stroke:none;stroke-width:1;marker:none;visibility:visible;display:inline;overflow:visible;enable-background:accumulate"/><path id="path3660" d="M 47.875,-62 36.75,-39.625 12.125,-36 l 3.625,3.5 21,-3.125 11.125,-22.375 11,22.375 L 80,-32.5 83.625,-36 58.875,-39.625 47.875,-62 z M 29.375,-15.25 25.75,6 26.5,5.625 30,-14.625 29.375,-15.25 z m 36.875,0 -0.625,0.625 3.5,20.25 L 69.875,6 66.25,-15.25 z" style="opacity:.5;color:#000;fill:#d45500;fill-opacity:1;fill-rule:nonzero;stroke:none;stroke-width:1;marker:none;visibility:visible;display:inline;overflow:visible;enable-background:accumulate"/><path id="path3670" d="M 15.75,-32.5 12.125,-32 29.375,-15.25 30,-18.625 15.75,-32.5 z M 80,-32.5 65.625,-18.625 66.25,-15.25 83.625,-32 80,-32.5 z M 47.75,-5.625 26.5,5.625 25.75,10 47.75,-1.625 69.875,10 69.125,5.625 47.75,-5.625 z" style="opacity:.3;color:#000;fill:#fff;fill-opacity:1;fill-rule:nonzero;stroke:none;stroke-width:1;marker:none;visibility:visible;display:inline;overflow:visible;enable-background:accumulate"/><path id="path3716" d="M 47.875,-62 36.75,-39.625 12.125,-36 30,-18.625 25.75,6 47.75,-5.625 69.875,6 65.625,-18.625 83.625,-36 58.875,-39.625 47.875,-62 z m 0.125,5.875 8.625,17.5 a 2.5125854,2.5125854 0 0 0 1.875,1.375 l 19.625,3 -14.375,13.875 a 2.5125854,2.5125854 0 0 0 -0.5,2.25 L 66.625,1.5 49,-7.875 A 2.5125854,2.5125854 0 0 0 46.625,-8 L 29,1.375 32.375,-18.25 a 2.5125854,2.5125854 0 0 0 -0.75,-2.25 l -14,-13.5 19.625,-3 a 2.5125854,2.5125854 0 0 0 0.625,-0.375 2.5125854,2.5125854 0 0 0 1.25,-1 L 48,-56.125 z" style="opacity:.3;color:#000;fill:#d45500;fill-opacity:1;fill-rule:nonzero;stroke:none;stroke-width:1;marker:none;visibility:visible;display:inline;overflow:visible;enable-background:accumulate"/><rect id="rect2910" width="96" height="96" x="-100" y="-74" style="opacity:.3;color:#000;fill:#f0f;fill-opacity:1;fill-rule:nonzero;stroke:none;stroke-width:1;marker:none;visibility:visible;display:inline;overflow:visible;enable-background:accumulate"/></g></svg>